<?xml version="1.0" encoding="utf-8"?>
<svg version="1.1" id="Layer_1" xmlns="http://www.w3.org/2000/svg" xmlns:xlink="http://www.w3.org/1999/xlink" x="0px" y="0px"
	 viewBox="0 0 275 275" style="enable-background:new 0 0 275 275;" xml:space="preserve">
<style type="text/css">
	.st0{fill:#FEFEFE;}
	.st1{fill:#070707;}
	.st2{fill:#090909;}
	.st3{fill:#2C2C2C;}
	.st4{fill:#101010;}
	.st5{fill:#0E0E0E;}
	.st6{fill:#2E2E2E;}
	.st7{fill:#606060;}
	.st8{fill:#3E3E3E;}
	.st9{fill:#3F3F3F;}
	.st10{fill:#242424;}
	.st11{fill:#646464;}
	.st12{fill:#FDFDFD;}
	.st13{fill:#030303;}
	.st14{fill:#FCFCFC;}
	.st15{fill:#A3A3A3;}
	.st16{fill:#CDCDCD;}
	.st17{fill:#F1F1F1;}
	.st18{fill:#0B0B0B;}
	.st19{fill:#191919;}
	.st20{fill:#909090;}
	.st21{fill:#FAFAFA;}
	.st22{fill:#D9D9D9;}
	.st23{fill:#BEBEBE;}
	.st24{fill:#151515;}
	.st25{fill:#B7B7B7;}
	.st26{fill:#EAEAEA;}
	.st27{fill:#CECECE;}
	.st28{fill:#B3B3B3;}
	.st29{fill:#F5F5F5;}
	.st30{fill:#E3E3E3;}
	.st31{fill:#FBFBFB;}
	.st32{fill:#DBDBDB;}
	.st33{fill:#F3F3F3;}
	.st34{fill:#656565;}
	.st35{fill:#1D1D1D;}
	.st36{fill:#E0E0E0;}
	.st37{fill:#D5D5D5;}
	.st38{fill:#F4F4F4;}
	.st39{fill:#C8C8C8;}
	.st40{fill:#F6F6F6;}
	.st41{fill:#141414;}
	.st42{fill:#1C1C1C;}
	.st43{fill:#EEEEEE;}
	.st44{fill:#E6E6E6;}
	.st45{fill:#212121;}
	.st46{fill:#292929;}
	.st47{fill:#171717;}
	.st48{fill:#0D0D0D;}
	.st49{fill:#252525;}
	.st50{fill:#1B1B1B;}
	.st51{fill:#B1B1B1;}
	.st52{fill:#303030;}
	.st53{fill:#666666;}
	.st54{fill:#DADADA;}
	.st55{fill:#202020;}
	.st56{fill:#DCDCDC;}
	.st57{fill:#878787;}
	.st58{fill:#969696;}
	.st59{fill:#181818;}
	.st60{fill:#D1D1D1;}
	.st61{fill:#313131;}
	.st62{fill:#222222;}
	.st63{fill:#484848;}
	.st64{fill:#7A7A7A;}
	.st65{fill:#262626;}
	.st66{fill:#2B2B2B;}
	.st67{fill:#323232;}
	.st68{fill:#545454;}
	.st69{fill:#838383;}
	.st70{fill:#ACACAC;}
	.st71{fill:#0C0C0C;}
	.st72{fill:#494949;}
	.st73{fill:#CACACA;}
	.st74{fill:#2D2D2D;}
	.st75{fill:#1E1E1E;}
	.st76{fill:#F7F7F7;}
	.st77{fill:#BABABA;}
	.st78{fill:#B4B4B4;}
	.st79{fill:#C1C1C1;}
	.st80{fill:#AFAFAF;}
	.st81{fill:#F0F0F0;}
	.st82{fill:#CCCCCC;}
	.st83{fill:#9F9F9F;}
	.st84{fill:#515151;}
	.st85{fill:#ECECEC;}
	.st86{fill:#5D5D5D;}
	.st87{fill:#626262;}
	.st88{fill:#737373;}
	.st89{fill:#040404;}
	.st90{fill:#F9F9F9;}
	.st91{fill:#AAAAAA;}
	.st92{fill:#5F5F5F;}
	.st93{fill:#A1A1A1;}
	.st94{fill:#C4C4C4;}
	.st95{fill:#848484;}
	.st96{fill:#343434;}
	.st97{fill:#6F6F6F;}
	.st98{fill:#E7E7E7;}
	.st99{fill:#BCBCBC;}
	.st100{fill:#4A4A4A;}
	.st101{fill:#E2E2E2;}
	.st102{fill:#DEDEDE;}
	.st103{fill:#464646;}
	.st104{fill:#5A5A5A;}
	.st105{fill:#272727;}
	.st106{fill:#A8A8A8;}
	.st107{fill:#D7D7D7;}
	.st108{fill:#EDEDED;}
	.st109{fill:#454545;}
	.st110{fill:#757575;}
	.st111{fill:#575757;}
	.st112{fill:#C9C9C9;}
	.st113{fill:#434343;}
	.st114{fill:#8A8A8A;}
	.st115{fill:#9D9D9D;}
	.st116{fill:#707070;}
	.st117{fill:#B6B6B6;}
	.st118{fill:#818181;}
	.st119{fill:#BFBFBF;}
	.st120{fill:#919191;}
	.st121{fill:#AEAEAE;}
	.st122{fill:#777777;}
	.st123{fill:#D4D4D4;}
	.st124{fill:#D6D6D6;}
</style>
<g>
	<g>
		<path class="st0" d="M276,276c-91.7,0-183.3,0-275,0C1,184.3,1,92.7,1,1c91.7,0,183.3,0,275,0C276,92.7,276,184.3,276,276z
			 M43.8,233.2c3,2.6,6,5.3,9,7.9c4.3,2.8,8.4,6,12.9,8.4c3.5,1.9,7.6,3,11.4,4.4c12.4,5.5,25.2,8.7,38.9,7.1
			c5.6,0,10.4-1.8,14.4-5.9c2.2-0.9,5.4-3.2,6.4-2.5c4.6,3.5,8.4,2.6,12.2-0.8c4.1-1.6,8.4-2.9,12.3-5c5.2-2.8,10.6-5.7,12.6-12
			c1-2.2,2-4.3,3.3-7.3c1.4,3.3,2.4,5.7,4,9.4c7.2-4.3,14.5-7.7,20.7-12.4c8.4-6.5,15.8-14.3,24.1-20.9c5.7-4.5,10.8-8.7,6.9-17.1
			c6.7-0.9,8.8-5.3,10.3-10.3c0.8-2.5,1.9-4.9,3-7.4c4.2-9.9,3.5-17.2-2.1-22.7c0-0.2,0-0.4,0.1-0.5c0.3-0.3,0.7-0.8,1.1-1
			c11.2-4.4,15.4-12.4,14-24.4c-0.8-7.2,0-14.6-3.5-21.4c-2.9-1.9-5.7-3.8-8.9-5.9c0.1-0.1,0.6-1,1.2-1.9c0.6-3.4,1.7-6.7,1.7-10.1
			c-0.1-10.2-1.2-20.3-8.7-28.2c-8-8.4-15.8-17-24.6-24.5c-5.4-4.7-11.9-8.8-18.6-11c-6.8-2.3-14.4-1.9-21.6-2.7
			c-17.4-2.6-33.9,0.4-49.8,7.7c-3,1.4-3.5,3.6-2.5,6.4c-5.5-3.6-10.8-6.1-17.9-4.1C92.2,28.6,78.4,32,66.7,41
			c-2.9,2.2-3.2,4.1-1.4,7.1c2.9,4.8,5.6,9.7,8.6,15c-2.2-0.6-4.2-1.4-6.3-1.6c-3.2-0.3-6.4-0.3-9.6-0.4c-8.1,3.2-13.3,9.7-16.7,17
			C35,91.7,29,105.6,24.2,119.9c-3.9,11.6-6.7,23.8-5.1,36.3c0.8,6.1,3.3,11.9,5,17.9c-0.6,2.2-0.4,5.4-1.9,6.6
			c-3.6,2.8-3.6,5.8-2.2,9.4c2,4.7,4,9.4,5.9,14.1c1.9,1.8,4.4,3.4,5.5,5.6c1.5,3.1,1.9,6.8,2.7,10.3c1.3,1.9,2.5,3.8,3.8,5.7
			C39.9,228.2,41.9,230.7,43.8,233.2z"/>
		<path d="M255.8,99.1c3.5,6.8,2.6,14.2,3.5,21.4c1.4,12-2.8,20-14,24.4c-0.4,0.2-0.8,0.6-1.1,1c-0.1,0.1-0.1,0.3-0.1,0.5
			c5.6,5.4,6.3,12.8,2.1,22.7c-1,2.4-2.2,4.9-3,7.4c-1.5,5-3.6,9.4-10.3,10.3c3.9,8.4-1.2,12.6-6.9,17.1
			c-8.3,6.6-15.7,14.4-24.1,20.9c-6.2,4.7-13.4,8.1-20.7,12.4c-1.6-3.7-2.6-6.1-4-9.4c-1.3,2.9-2.3,5.1-3.3,7.3
			c-0.3-0.7-0.6-1.4-1-2.1c0.4-1.9,0.9-3.7,1.3-5.6c1.6-8.8,3.2-17.5,4.8-26.3c0-3.3,0-6.7,0-10c0.9-3.7-0.7-6.3-3.7-8.3
			c-1.8-1.1-3.6-2.3-5.3-3.5c0.6-2,2.2-4.8,1.5-5.9c-3.2-4.8-2.1-8.6,1.6-12.3c1.3-0.3,2.7-0.7,4-1c1-1.7,2.1-3.4,3.1-5
			c1.7,3,2.9,6.4,5.2,8.7c1.3,1.3,4.4,1,6.6,1.3c1.2,5.6,4.9,8.9,10.3,10.3c6.5,1.7,13.1,3.2,19.7,4.8c3,0.7,6,1.4,9,2.1
			c3.8,1.6,5.7-0.5,6.6-3.6c2.3-7.5,4.5-15,6.5-22.5c1.1-4.2-4.6-9.2-9.9-8.1c1.9,1.3,3.3,2.2,4.7,3.2c-1,1.3-1.8,3.7-2.9,3.9
			c-6.6,1-13.3,1.5-19.9,2.2c-9.5-2.1-19.1-4.2-28.7-6.2c-1.3-0.3-2.8,0-4.2,0.1c-2.4-1.3-4.9-2.6-7.3-3.9c-1.1-0.3-2.2-0.5-3.3-0.9
			c-6.1-2.4-12.2-4.9-18.3-7.3c-1.2-0.5-3.3-2-2.2,1.4c-10.7-6.1-21.4-12.1-32.1-18.2c-1.3-1-2.6-2.1-3.9-3.1c0.3-1,0.7-1.9,1-2.9
			c2.8-1.7,7.6-0.6,7.9,2.2c0.8,8.9,9.5,7.6,14.2,11.5c-0.8-2.8-2-5.2-4-6.8c-3.2-2.8-6.8-5.2-10.3-7.5c-3.2-2-6.6-3.6-9.9-5.4
			c-3-1.4-6-2.8-8.9-4.1c-2.5-1.8-5.2-3.3-7.5-5.3c-2.6-2.3-4.7-2.5-6.8,0.5c-1.3-1-2.5-2.1-3.8-3.1c0.7-1,1.3-2,2-3.1
			c0-1,0-2,0-2.9c4.8-5.8,4.8-5.9-1.5-10.2c-1-0.7-2.3-1.2-3.4-1.8c0.3-0.7,0.6-1.3,0.9-2c-1.4-5.2-11.3-12.6-16.4-12.1
			c-0.5,0-1,0.7-1.6,1.1c-2.9-2.9-6.1-4.1-10.1-2c0-1.3,0-2.6,0.1-4c3.2,0.1,6.4,0.1,9.6,0.4c2.1,0.2,4.1,1,6.3,1.6
			c-3-5.3-5.6-10.2-8.6-15c-1.8-3-1.5-4.8,1.4-7.1C78.4,32,92.2,28.6,106,24.8c7.1-1.9,12.5,0.6,17.9,4.1c1.6,1,3.3,2,4.9,3.1
			c0.4,0.4,0.8,0.8,1.1,1.1c1.6,2.1,3.3,4.2,4.9,6.3c-0.9-0.6-1.8-1.1-2.7-1.7c-2.1-1.3-4.2-2.5-6.2-3.8c-0.6-0.4-1.2-0.8-1.8-1.2
			c-4.9-4-10.5-5-16.4-3.2c-8.4,2.5-16.9,5.1-25.1,8.2c-4.9,1.9-9.4,4.8-14.2,7.3c8.9,1.4,17.2,2.7,25.4,3.9c2,0.7,4,1.4,6,2
			c3,1.3,6,2.6,9,3.9c5.9,4.1,11.9,8.2,17.8,12.3c3.7,4.5,7.5,9.1,11.2,13.6c13.6,15.6,22.7,34.7,37.2,49.6c0.7-0.1,1.4-0.1,2-0.2
			c2-7.4,4-14.9,6-22.3c1.9-6.4,1.4-7.2-7.1-10.2c-1.1-1.2-2.1-2.5-3.2-3.7c-0.2-0.9-0.4-1.8-0.7-3.5c2,1.4,3.4,2.3,4.7,3.2
			c-1.8-4.4-3.5-8.7-5.2-12.9c0.5-0.4,1.1-0.8,1.6-1.2c2.7,1.4,5.4,2.8,8.1,4.2c1.8,1.5,3.7,2.9,5.5,4.4c-3.9,3.3-3.4,10.2,1.4,12.1
			c5,1.9,10.3,3,15.5,4.4c0.2-0.7,0.5-1.3,0.7-2c-2.6-1-5.2-2-7.7-3.2c-1.2-0.6-3-1.3-3.2-2.3c-0.3-1.4,0.4-3.1,0.9-4.6
			c0.4-1.2,1-2.3,1.4-3.5c2.1-10.8,1.9-10.5-7.6-16.6c-4.9-3.1-9-7.6-13.5-11.4c-1-2.7-1.9-5.3-2.9-8c-0.4-6.4,1.8-11.8,7.1-16
			c-2-1.7-3.5-2.9-5-4.1c0.4-1.3,0.7-2.7,1.1-4c0.3,0,0.5,0.1,0.8,0.1c2,1.6,4,3.3,6.1,4.9c3,4.7,6,9.3,9,14
			c-0.4,3.9-0.8,7.8-1.2,11.6c0.5,0.1,1,0.2,1.5,0.3c0.5-0.6,1-1.2,1.5-1.8c1.9,3.6,2.9,8.1,5.8,10.5c3.9,3.2,5.4,6.4,4.8,11.1
			c-0.6,4.7-1.1,9.5-1.6,14c3.2,1.9,5.3,1.2,6.9-1.7c2.7-4.7,5.6-9.4,8.5-14c0.7-1.1,2.1-2.6,3.1-2.5c4.4,0.5,6.1-2.6,8.4-5.2
			c1.9-2.2,4.2-4.1,6.3-6.1c1.6,0.3,3.2,0.7,4.9,1c-1,3.6-1.9,7.3-2.9,10.9c-0.7,1.5-1.2,3.2-2.2,4.3c-2.6,2.8-5.2,7-8.4,7.6
			c-6,1.1-7.6,5.8-10.6,9.5c-0.1,0.2,0.7,1.1,1.1,1.7c2.1,0.3,4.1,0.6,6.2,1c3,0.5,6,1.2,9,1.7c3.2,0.4,6.5,0.8,9.7,1.1
			c0.2,0.3,0.2,0.6,0,0.9c-10.3,3.8-19.5,10.7-31.1,11c-0.4-5-3.4-3.3-4.9-1.3c-2.8,3.7-4.9,7.9-7.6,12.4c2.6-0.8,4.2-1.2,5.9-1.7
			c-1.4,2.3-2.8,4.5-3.9,6.5c8.5-1.6,16.6-3.2,24.7-4.8c2,0.3,4,0.7,6,1l0.1,0c-3.2,2.2-6.4,4.3-9.5,6.7c-0.9,0.7-1.2,2-1.7,3.1
			c-1.3,0.4-2.5,0.8-3.8,1.3c-2.5-0.4-5-0.9-7.8-1.4c-0.5,1.1-1.1,2.3-1.6,3.4c-1.6-0.1-3.2-0.2-4.8-0.2c7.2,5.5,15.4,6.6,23.9,6
			c8.7-1.4,17.1-3.5,23.1-10.7c6.5-1.1,8.3-3.4,8-9.7c-0.1-1.5,0.1-3,0-4.5c-0.6-7.3-1.5-14.5-7-20.1c0-0.6,0-1.2,0-1.8
			C251.9,99.1,253.8,99.1,255.8,99.1z M195.9,186.1c-0.2-2.1,0.3-4.6-0.7-6.1c-1.8-2.8-3.9-0.5-5.9,0.6c-1.2,0.7-2.8,0.6-4.3,0.9
			c1.1,1.7,2.1,3.2,3.1,4.8c1,4.9,1.9,9.8,2.9,14.8c-0.3,6.3-0.6,12.7-0.9,19c-1.4,2.8-2.8,5.7-4.2,8.5
			c17.1-8.4,31.5-19.8,44.2-33.5c0.8-0.8,1-2.8,0.5-4c-0.9-2.4-2.4-4.7-3.7-7c-2.1-0.5-4.2-1.1-6.8-1.7c0.5,1.9,0.9,3.1,1.4,4.8
			c-1.3-1-2-1.5-2.9-2.3c0.3,1.5,0.5,2.7,0.5,2.6c-2.1,0.5-3.6,0.8-5.1,1.1c-2.5-3.1-5-6.1-7.6-9.2c-0.3,0.3-0.7,0.6-1,0.8
			c1.1,1.4,2.3,2.9,3.4,4.3c-0.2,0.2-0.4,0.4-0.6,0.6c-2.3-1.6-4.6-3.3-6.7-4.8c-2.5,6.3,2.2,7.2,6.1,8.8c-0.6,0.3-1.2,0.5-1.8,0.8
			C202.6,188.7,199.3,187.4,195.9,186.1z M218.9,149c-6.1-1.9-12.1-3.7-18.2-5.6c-0.2,0.3-0.5,0.6-0.7,0.8c2.3,1.9,4.6,3.9,6.9,5.8
			c0.3,0.9,0.4,2.5,0.9,2.7c6,1.9,11.7,1.2,16.7-3.7C222.7,149,220.8,149,218.9,149z M83.5,66.1c2.8,3,5.6,6,8.5,9
			c9.3,7.8,18.6,15.5,27.9,23.3c2.4,2.2,4.8,4.4,7.2,6.6c-2.4-1.1-4.9-2.2-7.3-3.2c-1.4-0.6-2.9-1-4.4-1.4
			c8.2,6.4,16.5,11.9,25,17.4c0.9,0.6,2.5,0.2,3.7,0.3c4,2,8,4.1,11.9,6.1c2.1,0.7,4.2,1.4,6.3,2.2c0.3-0.6,0.6-1.2,1-1.8
			c-0.8-1.1-1.5-2.3-2.3-3.4c-1.6-1.2-3.2-2.4-4.8-3.5c-8.3-5.7-15.7-12.3-20.6-21.2c-1.7-3.1-3.4-7.1-2.8-10.3
			c0.9-5.6-1.9-8.2-5.5-11c-1-1.4-2.1-2.7-3.1-4.1c-1.6-2.1-3.2-4.1-4.8-6.2c-3.4-2.3-6.8-4.5-10.2-6.8c-2.7-1.2-5.3-2.3-8.6-3.7
			c0.5,1.7,0.7,2.7,1,3.6c-0.3,0.2-0.6,0.4-0.9,0.6c-2.1-2.2-4.2-4.5-6.6-7.1c0,1.4,0,2.4,0,4.3c-2.2-2.1-3.9-3.7-5.6-5.3
			c-0.3,0.2-0.5,0.4-0.8,0.6c1.5,2.3,3,4.5,4.5,6.8c-0.4,1-0.7,1.9-1.1,2.9c-4.6-5.7-8.8-11.8-17-12.8c-1,0.2-2,0.3-4.4,0.7
			C74.7,55.1,79.1,60.6,83.5,66.1z M180,220.5c0.4,2.6,0.8,5.5,1.3,8.5c0.3,0,0.6,0.1,0.9,0.1c1-2.3,2-4.5,2.8-6.4
			C183.1,221.9,181.6,221.3,180,220.5z"/>
		<path class="st1" d="M20,190c-1.3-3.6-1.4-6.6,2.2-9.4c1.4-1.1,1.3-4.3,1.9-6.6c0.3,0,0.5,0,0.8,0c1.4,1,2.9,1.9,4.3,2.9
			c1.2,0.8,2.4,1.5,3.6,2.3c7.4,2.8,14.9,2.9,22.5,0.9c1.1-0.1,2.3-0.3,4.1-0.5c-2-2.1-3.4-3.6-4.8-5.1c1.1,0.5,2.1,1.1,3.2,1.6
			c2,0.9,4,1.8,6.1,2.7c9.4,0.1,18.7,0.3,28.1,0.4c0.5,0,1-0.1,1.4-0.3c4.2-1.6,8.4-3.2,12.7-4.9c1.7-0.3,3.3-0.7,5-1
			c2.2,2.8,0.1,3.2-2.1,3.8c-5.6,1.7-11.1,3.5-16.7,5.3c0.1,0.5,0.3,0.9,0.4,1.4c8.1-2.3,16.1-4.9,24.2-7c3.9-1,8-1.2,12-1.7
			c-2.7,1.1-5.3,2.2-8,3.2c-17.3,4.3-34.7,8.6-52,12.9c-4.7,0.3-9.3,0.7-14,1c-5.3-0.9-10.7-1.9-16-2.8c-3.9-1.9-7.8-3.8-11.8-5.7
			c-2.6-0.1-5.8,0.9-3,5.2c0.3,1.4,0.5,2.8,0.8,4.2c3.3,8.1,9,13.8,17,17.1c0.3,0.3,0.7,0.6,1,0.9c-2,0-3.9-0.1-5.9-0.1
			c-2,1.9-1.9,2.7,0.9,6.2c-1.3,0.9-2.5,1.8-3.8,2.8c-0.8-3.4-1.2-7.1-2.7-10.3c-1.1-2.2-3.6-3.8-5.5-5.6c-0.1-1.6,0.2-3.3-0.5-4.7
			C23.9,196.1,21.9,193.1,20,190z"/>
		<path class="st2" d="M24.9,174c-0.3,0-0.5,0-0.8,0c-1.7-5.9-4.3-11.8-5-17.9c-1.6-12.4,1.2-24.7,5.1-36.3
			C29,105.6,35,91.7,41.3,78c3.4-7.3,8.6-13.8,16.7-17c0,1.3,0,2.6-0.1,4c-3.8,4.3-8.5,8.2-11.3,13.1C36.6,95.9,29.2,114.9,24.9,135
			c-0.3,3.3-0.6,6.7-0.9,10c-0.3,2.9-1,5.9-0.8,8.8C23.5,160.5,24.3,167.3,24.9,174z"/>
		<path class="st1" d="M176.2,14.9c7.2,0.8,14.9,0.4,21.6,2.7c6.7,2.2,13.2,6.3,18.6,11c8.7,7.6,16.6,16.1,24.6,24.5
			c7.5,7.9,8.6,18,8.7,28.2c0,3.3-1.1,6.7-1.7,10.1c-0.3-5.1-0.6-10.3-0.8-15.4c-1.9-9.9-5.9-18.8-13.2-26c-1-1-2-2-3-3
			c-2.1-1.9-4.1-3.9-6.2-5.8c-1.6-1.1-3.2-2.1-4.8-3.2c-2.6-5.3-7.1-8.4-12-11c-1.4-0.6-2.8-1.2-4.2-1.8c-5.6-1.8-11.2-3.5-16.8-5.3
			c-2.5-0.7-5.2-2.5-7.1,1c-4.6-1.3-9.3-2.6-13.9-3.9C169.4,16.3,172.8,15.6,176.2,14.9z"/>
		<path class="st3" d="M176.2,14.9c-3.4,0.7-6.8,1.4-10.2,2.1c-12.3,2.4-24.6,4.8-37,7.2c-1.4,0.5-2.7,1-4.2,1.6
			c1.6,2.5,2.8,4.4,4,6.3c-1.6-1-3.3-2-4.9-3.1c-1-2.8-0.5-5,2.5-6.4C142.3,15.3,158.8,12.3,176.2,14.9z"/>
		<path class="st4" d="M149,251.9c-3.9,3.4-7.6,4.3-12.2,0.8c-0.9-0.7-4.2,1.6-6.4,2.5c-2.5,0-4.9-0.1-7.4-0.1
			c4.3-2.4,8.9-4.3,10.2-9.7c0.3-0.1,0.5-0.2,0.7-0.3c0.8-0.4,1.7-0.9,1.6-0.8c1.6,1.2,3,2.3,4.4,3.3c0.3,0.5,0.7,1,1,1.5
			c2.1,4.7,5.3,0.8,8,1C149,250.6,149,251.2,149,251.9z"/>
		<path class="st5" d="M116,261c-13.7,1.6-26.5-1.6-38.9-7.1c0-0.6,0-1.2-0.1-1.8c5.7,1.3,11.3,2.6,17,3.9c3.7,0.7,7.3,1.3,11,2
			c1.8,0.3,3.6,0.5,5.3,1C112.2,259.6,114.1,260.3,116,261z"/>
		<path class="st6" d="M34.1,219.9c1.3-0.9,2.5-1.8,3.8-2.8c6.6,5.7,14.4,8.7,23.1,9.6c6.3,0.4,12.5,0.7,18.8,1.1
			c1.4,0.3,2.8,0.7,4.1,1c-0.6,0.1-1.3,0.2-1.9,0.2c-11.4-0.3-23,0.6-34-3.2c-2.3-1-4.7-2-7-3.1c-1.3-1-2.5-1.9-4.5-3.5
			c0.7,2.9,1.1,4.5,1.5,6.2C36.7,223.7,35.4,221.8,34.1,219.9z"/>
		<path class="st7" d="M77,252.1c0,0.6,0,1.2,0.1,1.8c-3.8-1.4-7.8-2.5-11.4-4.4c-4.5-2.4-8.6-5.6-12.9-8.4c0.7-0.7,1.4-1.3,2.1-2
			c2.3,1.3,4.7,2.6,7,3.9c3,1.7,6,3.3,9,5C72.9,249.4,75,250.7,77,252.1z"/>
		<path class="st8" d="M149,251.9c0-0.6,0-1.3,0-1.9c1.9-0.9,3.9-1.7,5.8-2.6c7.2-3.3,14.2-7,18.1-14.5c0.3,0.7,0.6,1.4,1,2.1
			c-2,6.3-7.4,9.2-12.6,12C157.4,249,153.1,250.2,149,251.9z"/>
		<path class="st9" d="M247.2,75.9c0.3,5.1,0.6,10.3,0.8,15.4c-0.6,0.9-1.2,1.8-1.2,1.9c3.2,2.1,6.1,4,8.9,5.9
			c-1.9,0-3.8-0.1-5.8-0.1c-3.7-1-7.4-2.1-11.2-3.1c1.5-0.9,2.9-1.8,4.4-2.7c1.3-2.3,3.2-4.4,3.7-6.9
			C247.5,83,247.1,79.4,247.2,75.9z"/>
		<path class="st10" d="M116,261c-1.9-0.7-3.8-1.5-5.7-2c-1.7-0.5-3.5-0.7-5.3-1c4.3-0.7,8.6-1.4,12.9-2c1.4-0.3,2.7-0.6,4.1-0.9
			l0.5-0.1l0.5,0.1c2.5,0,4.9,0.1,7.4,0.1C126.4,259.2,121.6,261,116,261z"/>
		<path class="st11" d="M38,225.7c-0.4-1.7-0.8-3.4-1.5-6.2c2,1.5,3.3,2.5,4.5,3.5c1.8,2.3,3.5,4.6,5.3,7c0.2,0.7,0.4,1.5,0.5,2.2
			c-1,0.4-2,0.8-3,1.2C41.9,230.7,39.9,228.2,38,225.7z"/>
		<path class="st8" d="M43.8,233.2c1-0.4,2-0.8,3-1.2c2.7,2.4,5.4,4.7,8.2,7.1c-0.7,0.7-1.4,1.3-2.1,2
			C49.8,238.5,46.8,235.9,43.8,233.2z"/>
		<path class="st9" d="M20,190c1.8,3.1,3.9,6.2,5.4,9.4c0.6,1.3,0.4,3.1,0.5,4.7C24,199.4,22,194.7,20,190z"/>
		<path class="st0" d="M179,191c0,3.3,0,6.7,0,10c-5.6,9.5-12.9,17.5-21.7,24.1c-1,0.8-2.7,1.3-3.9,1.1c-0.7-0.1-1-2.1-1.3-3.4
			c-0.4-1.9-0.7-3.8-1-5.8c-0.7-0.7-1.4-1.3-2-2c-7.3-7.8-13.4-9.5-22.2-6.1c-9.8,1.4-19.6,2.8-29.4,4.3c-1.4-0.4-2.9-0.7-4.3-1.1
			c-2.3-5.7-4.6-11.3-7-17c-0.7,1-1.4,2-2.1,3.1c-0.6-1.6-1.3-3.3-1.9-4.9c12.6-3.7,25.3-7.2,37.8-11.1c3.8-1.2,7.3-3.3,11-5
			c2.3-0.5,4.6-1,6.9-1.6c5.8,0.8,11.9,0.9,17.4,2.6c7.5,2.4,14.6,6,21.9,9.1C177.7,188.4,178.3,189.7,179,191z"/>
		<path class="st12" d="M208,26.9c4.9,2.7,9.5,5.8,12,11c-0.4,4.7-1,9.5-1.2,14.2c-0.1,1.6,1,3.2,1.5,4.9c0.2,0.3,0.4,0.6,0.6,0.9
			c1,0.1,2.5,0.7,2.9,0.3c1.5-1.6,2.7-3.5,4-5.4c2.4,3.7,4.8,7.5,7.2,11.2c-2.1,2-4.4,3.9-6.3,6.1c-2.3,2.6-4,5.7-8.4,5.2
			c-0.9-0.1-2.4,1.4-3.1,2.5c-3,4.6-5.8,9.3-8.5,14c-1.6,2.9-3.7,3.6-6.9,1.7c0.5-4.6,1-9.3,1.6-14c0.6-4.7-1-7.9-4.8-11.1
			c-2.9-2.4-3.9-6.9-5.8-10.5c0-1.9-0.1-3.8-0.1-5.7c1.7-1.4,3.4-2.9,5.1-4.3c1,1.3,2,2.5,3,3.8c0.3,0.4,0.7,0.8,1,1.2
			c1.4-2.5,3.7-4.9,4-7.5c0.5-4.5-0.3-9.2-0.4-13.8C205.5,29.8,204.4,27.1,208,26.9z M208.5,60c0.2,2.2-0.1,4.7,0.9,6.2
			c0.9,1.2,3.4,1.3,5.2,1.9c0.3-0.5,0.6-1,0.9-1.5C212.9,64.9,216.1,59,208.5,60z"/>
		<path class="st0" d="M119.9,122c10.7,6.1,21.4,12.1,32.1,18.2c7.6,3.9,15,8.4,24,7.7c0.2,0.2,0.6,0.3,0.7,0.6
			c0.1,0.2-0.1,0.7-0.3,0.7c-4.3,0.9-8.9,1.4-13,2.8c-20.8,7.3-39.8,5.2-56.6-9.8C107.6,133.2,114,127.7,119.9,122z"/>
		<path class="st13" d="M106.9,142.3c16.8,15,35.8,17.1,56.6,9.8c4.2-1.5,8.7-1.9,13-2.8c0.2,0,0.4-0.5,0.3-0.7
			c-0.1-0.3-0.5-0.4-0.7-0.6c-0.1-0.3-0.2-0.5-0.3-0.8c2.4,1.3,4.9,2.6,7.3,3.9c1.3,1.9,2.7,3.9,4,5.8c-1.6-0.9-3.1-2-4.7-2.7
			c-0.5-0.2-1.5,0.5-2.3,0.8c-1,1.7-2.1,3.4-3.1,5c-0.3-1.3-0.7-2.7-1-4c-1.8-1.1-3.6-2.2-5.3-3.3c-0.2,1.4-0.4,2.9-0.7,4.3
			c-1.4-0.2-2.9-0.6-4.3-0.6c-3.1-0.1-6.3,0.1-9.4,0.1c2.7,4.8,5.7,6.3,10.2,4.5c1.8-0.8,4.3,0,6.5,0.1c-3.7,3.7-4.8,7.4-1.6,12.3
			c0.8,1.2-0.9,3.9-1.5,5.9c-1.3-0.5-2.6-0.9-4-1.4c0.7-1.5,1.5-3,2.4-4.7c-1.4-1-2.6-2-4-2.8c-4.1-2.5-8.2-4.9-12.3-7.3
			c-0.8-3.3-2.6-4.5-6.2-3.6c-2.8,0.6-5.9,0.2-8.8-0.1c-4.1-0.4-9.3,2.1-11,5.7c-9,0.3-17.3-1.9-24.5-7.5c-3.9-3-7.7-6.2-11.5-9.4
			c-6.7-3.4-13.3-6.7-20-10.1c-2-0.6-4-1.2-5.9-1.8c1.4-0.3,2.7-0.6,4.1-1c2.3,0,4.6-0.1,6.9-0.1c2.5,1.6,5,3.2,7.5,4.8
			c0.1-0.3,0.3-0.5,0.4-0.8c-1.2-1.8-2.4-3.6-3.6-5.5c-1.6,0.6-2.9,1.1-4.3,1.6c0.4-3.7,0.8-7.5,1.2-11.2c4.9,2.7,9.8,5.5,14.7,8.2
			c-1.2,1.3,0.3,4.8-3.3,4.2c-0.2,1.7-0.9,3.6-0.4,5c0.5,1.1,2.5,2.3,3.9,2.3c3.9-0.1,7.7-0.9,11.5-1.4c-0.1-0.4-0.2-1.4-0.4-2.5
			C103.8,140.6,105.4,141.4,106.9,142.3z"/>
		<path class="st0" d="M183.3,108c-2,7.4-4,14.9-6,22.3c-0.7,0.1-1.4,0.1-2,0.2c-14.5-14.9-23.6-34-37.2-49.6c1.4-1.3,2.6-2.8,4.2-4
			c2.9-2.1,5.9-3.9,8.8-5.9c1.7-0.7,3.4-1.4,5.1-2.1c5,8.7,9.9,17.4,14.9,26c2.6,2.7,5.3,5.4,7.9,8.1
			C180.4,104.8,181.8,106.4,183.3,108z"/>
		<path class="st12" d="M187.1,156.8c-1.3-1.9-2.7-3.9-4-5.8c1.4,0,2.9-0.4,4.2-0.1c9.6,2,19.1,4.1,28.7,6.2c5,0.3,10,0.6,14.9,0.9
			c-3,7.3-6,14.7-9,22c-6.6-1.6-13.1-3.1-19.7-4.8c-5.4-1.4-9-4.6-10.3-10.3C190.3,162.3,188.7,159.6,187.1,156.8z"/>
		<path class="st12" d="M210.9,114.9c11.5-0.3,20.8-7.2,31.1-11c1,2.7,2.6,5.2,2.9,8c0.5,4.9,0.1,9.9,0.1,14.9
			c-0.6,0-1.3-0.1-1.9-0.1c-6-0.2-12.1-0.5-18.1-0.7c-8.1,1.6-16.3,3.1-24.7,4.8c1.2-1.9,2.6-4.2,3.9-6.5
			C206.4,121.2,208.6,118.1,210.9,114.9z"/>
		<path class="st14" d="M24.9,135c4.3-20.1,11.7-39.1,21.8-56.9c2.8-4.9,7.5-8.8,11.3-13.1c3.9-2.1,7.2-0.9,10.1,2l-0.3,0.2
			c-0.9,0.3-1.8,0.5-2.7,0.8c-0.3,0.7-0.7,1.3-1,2c-1.4,1.9-3,3.8-4.2,5.8c-2.7,4.4-5.2,8.9-7.8,13.3c-3,3.7-6,7.3-9,11
			c-1,2.1-2.3,4.1-3,6.3c-1.9,6.4-3.4,12.9-5.1,19.4c-3.1,4-6.2,7.9-9.6,12.3C25.1,136.6,25,135.8,24.9,135z"/>
		<path class="st15" d="M119.2,64.8c1.6,2.1,3.2,4.1,4.8,6.2c0,0.7,0,1.3-0.1,2c-3.2,1.9-6.2,14.3-4.8,19.1c0.6,2,0.5,4.1,0.7,6.2
			C110.6,90.5,101.3,82.8,92,75c4.2,2.4,8.4,4.8,12.6,7.3c0.5-0.6,1.1-1.1,1.6-1.7c-3.9-3.2-7.8-6.4-11.8-9.6c0.5,0,1,0,1.5,0
			c0.8,0.2,1.6,0.3,2.5,0.5c-2-2.8-3.8-5.3-5.6-7.8c2.6,1.5,5.2,3.1,8.4,4.9c-0.9-1.9-1.6-3.3-2.3-4.7c1.9,0.7,3.8,1.4,5.9,2.1
			c-0.3-1.2-0.6-2.3-1-3.8c1.7,1,2.9,1.7,4.9,2.9c-1-1.9-1.6-2.9-2.1-3.9c0.2-0.2,0.4-0.3,0.6-0.5c1.9,1.5,3.8,2.9,5.7,4.4
			C115.3,69.1,117.2,65.2,119.2,64.8z"/>
		<path class="st16" d="M151,217c0.3,1.9,0.6,3.9,1,5.8c0.3,1.2,0.6,3.2,1.3,3.4c1.2,0.3,2.8-0.3,3.9-1.1
			c8.8-6.6,16.1-14.5,21.7-24.1c-1.6,8.8-3.2,17.5-4.8,26.3c-0.6-0.4-1.6-1.3-1.6-1.3c-1.9,1.8-3.9,3.6-5.4,5.8
			c-5,7.4-12,11.3-20.5,13.1c1.3-4.9,2.6-9.8,3.8-14.8c0.3-1.4,0.9-3.6,0.2-4.3C147.3,222.5,150.2,219.9,151,217z"/>
		<path class="st12" d="M93.9,49c-8.2-1.3-16.5-2.5-25.4-3.9c4.7-2.5,9.2-5.5,14.2-7.3c8.2-3.1,16.7-5.7,25.1-8.2
			c5.9-1.8,11.5-0.8,16.4,3.2c-4.1,1-8.3,1.8-12.4,2.9C104,37.8,98.9,43.2,93.9,49z"/>
		<path class="st17" d="M106.9,142.3c-1.5-0.8-3-1.6-4.5-2.5c-2.8-2.3-5.5-4.6-8.3-6.9c0.7-3.3,1.1-6.8,2.3-9.9
			c1.6-4.1,3.8-8,5.7-12c0.6,0,1.2,0,1.8,0c4.1,2.6,8.1,5.2,12.2,7.9c1.3,1,2.6,2.1,3.9,3.1C114,127.7,107.6,133.2,106.9,142.3z"/>
		<path class="st18" d="M171,95c-5-8.7-9.9-17.4-14.9-26c-1.4-3-2.7-6-4.1-9c0-2.6,0-5.2,0-7.4c1.6-0.2,3.7-0.4,5.9-0.6
			c2,3,4.1,6,6.1,9c0.7,1.4,1.3,2.7,2,4.1c0.6,2.5,1.2,5.1,2,7.6c0,0.1,2-0.4,3-0.6c3.5,3.9,7,7.9,10.4,11.8
			c-2.7-1.4-5.4-2.8-8.1-4.2c-0.5,0.4-1.1,0.8-1.6,1.2c1.7,4.2,3.4,8.5,5.2,12.9c-1.3-0.9-2.6-1.8-4.7-3.2c0.4,1.7,0.5,2.6,0.7,3.5
			C172.3,94.4,171.7,94.7,171,95z"/>
		<path class="st12" d="M181.4,83.8c-3.5-3.9-7-7.9-10.4-11.8c-1.7-2.3-3.3-4.6-5-6.9c-0.7-1.4-1.3-2.7-2-4.1
			c1.5,1.1,2.9,2.3,4.4,3.2c1.6,0.9,3.3,1.4,5,2.1c0-1.4-0.1-2.8,0.1-4.1c0.1-0.5,0.9-0.8,1.4-1.2c4.5,3.8,8.6,8.3,13.5,11.4
			c9.5,6.1,9.7,5.8,7.6,16.6c-3.4,4.1-6-0.8-9-0.8C185.1,86.7,183.3,85.2,181.4,83.8z"/>
		<path class="st19" d="M157.9,52c-2.1,0.2-4.3,0.4-5.9,0.6c0,2.2,0,4.8,0,7.4c-0.6-0.7-1.2-1.4-1.9-2.1c-1.3-2-2.6-4-4-6
			c-1.4-1.7-2.7-3.4-4.1-5c-2.4-2.5-4.8-4.9-7.2-7.4c-1.6-2.1-3.3-4.2-4.9-6.3c-0.2-1.8-0.5-3.6-0.5-5.3c0-0.6,1-1.2,1.5-1.7
			c2.6,1,5.3,2,7.9,3c2,1.3,4,2.7,6,4c2.4,2.7,4.7,5.3,7.1,8c1.3,2,2.6,4.1,3.9,6.1C156.5,48.8,157.2,50.4,157.9,52z"/>
		<path class="st20" d="M126,34c2.1,1.3,4.2,2.5,6.2,3.8c0,3.8-1.4,6.2-5.3,7.7c-5.2,2-10,5-15,7.5c-1,0.7-2,1.4-3,2.1
			c-3-1.3-6-2.6-9-3.9c4.7-4.2,9.1-8.8,14.2-12.4C117.6,36.3,122,35.5,126,34z"/>
		<path class="st21" d="M226.9,184.1c1.3,2.3,2.7,4.5,3.7,7c0.4,1.1,0.2,3.1-0.5,4c-12.6,13.7-27,25.1-44.2,33.5
			c1.4-2.8,2.8-5.7,4.2-8.5c1.9,0.5,3.7,1.1,4.3,1.3c2.3-2,3.6-3.3,5-4.5c1.6-1.3,3.2-2.5,4.8-3.7c1.3-1.4,2.6-2.9,4-4.3
			c4.7-4.6,9.4-9.1,14.1-13.6c0.2-0.3,0.4-0.6,0.7-0.8c0.1-1.1,0.1-2.3,0.2-3.4c0.4-1.3,0.7-2.7,1.3-3.9
			C225.1,186,226.1,185.1,226.9,184.1z"/>
		<path class="st22" d="M103.8,111.1c-0.6,0-1.2,0-1.8,0c-2.3-0.3-4.5-0.7-6.8-1C91,103.1,85.1,98,77,94.5c0.3,4.1,1.3,7.5,0.5,10.4
			c-1.1,3.9-3.6,7.5-5.5,11.2c-2.7-3.6-5.4-7.3-8-10.9c2-3.4,4.1-6.7,6.1-10.1c2-2,4-3.9,6-5.9c1.5,0.8,3.2,1.3,4.6,2.3
			c2.6,2,5,4.4,7.5,6.6c1.3,1,2.5,2.1,3.8,3.1C95.8,104.4,99.8,107.8,103.8,111.1z"/>
		<path class="st23" d="M111.9,53c5-2.5,9.8-5.5,15-7.5c3.9-1.5,5.3-3.9,5.3-7.7c0.9,0.6,1.8,1.1,2.7,1.7c2.4,2.5,4.8,4.9,7.2,7.4
			c-3.9,3.2-7.8,6.3-11.7,9.5c0.3,0.4,0.6,0.8,0.9,1.2c2.2-0.5,4.4-1.1,6.6-1.6c-4.8,5.1-9.7,5.1-14.6,0.4c-1.3-1.2-4.2-2.8-4.9-2.3
			C115.7,56.3,114,53.9,111.9,53z"/>
		<path class="st24" d="M88,98c-2.5-2.2-4.9-4.5-7.5-6.6c-1.3-1-3-1.6-4.6-2.3c-2.3-3.5-4.6-6.9-6.9-10.4c-0.4-0.6-0.8-1.1-1.2-1.7
			c-1.3-2.4-2.6-4.7-3.9-7.1c0.3-0.7,0.7-1.3,1-2c1,1,2,2,3,2.9c3.5,8.9,12.9,9.5,19,14.8c0.3-0.4,0.6-0.9,0.9-1.3
			c-6.7-4.5-13.3-9-20-13.5c2,0.3,4.4-0.1,6,0.9c3.9,2.4,7.4,5.4,11.1,8.1c1.1,0.6,2.3,1.1,3.4,1.8c6.4,4.4,6.4,4.4,1.5,10.2
			c-1.1-1.3-2.2-2.6-3.7-4.3C83,93.4,87.8,93.4,90,95C89.3,96,88.7,97,88,98z"/>
		<path class="st25" d="M155.9,47.1c-1.3-2-2.6-4.1-3.9-6.1c2.7-1.9,5.4-3.9,8.2-5.7c2.9-1.9,6-3.7,9-5.5c1.7,1,3.3,2,5,3
			c1.5,1.2,3,2.4,5,4.1c-5.3,4.2-7.6,9.6-7.1,16c-0.3-0.9-0.8-1.8-0.9-2.8c-1.4-8.1-3.7-9.2-10.9-5.6
			C158.7,45.4,157.3,46.3,155.9,47.1z"/>
		<path class="st26" d="M155.9,47.1c1.4-0.8,2.8-1.8,4.3-2.5c7.2-3.6,9.5-2.5,10.9,5.6c0.2,1,0.6,1.9,0.9,2.8c1,2.7,1.9,5.3,2.9,8
			c-0.5,0.4-1.3,0.7-1.4,1.2c-0.2,1.3-0.1,2.7-0.1,4.1c-1.7-0.7-3.4-1.2-5-2.1c-1.6-0.9-3-2.1-4.4-3.2c-2-3-4.1-6-6.1-9
			C157.2,50.4,156.5,48.8,155.9,47.1z"/>
		<path class="st27" d="M111.9,53c2.1,1,3.7,3.3,6.6,1c0.6-0.5,3.6,1.1,4.9,2.3c4.8,4.7,9.8,4.7,14.6-0.4c2.7-1.4,5.5-2.7,8.2-4.1
			c1.3,2,2.6,4,4,6c-1.5,0.7-2.8,1.8-4.4,2.2c-4.2,1.1-8.5,1.9-12.8,2.9c-2.1,1.4-4.1,2.9-6.2,4.3c-5.9-4.1-11.9-8.2-17.8-12.3
			C110,54.3,111,53.6,111.9,53z"/>
		<path class="st28" d="M119.9,98.3c-0.2-2.1-0.2-4.2-0.7-6.2c-1.4-4.8,1.6-17.3,4.8-19.1c-1.1,7.8,0,15.2,4.5,21.8
			c2.9,4.2,5.8,8.5,8.7,12.7c-0.7,1.1-1.4,2.3-2.1,3.4c-2.7-2-5.3-4-8-6C124.7,102.7,122.3,100.5,119.9,98.3z"/>
		<path class="st29" d="M241.9,103c-3.2-0.4-6.5-0.8-9.7-1.1c1.6-0.6,3.2-1.6,4.8-1.7c4-0.2,7.9,0,11.9,0c0.4,0.2,0.7,0.4,1.1,0.6
			c5.5,5.6,6.5,12.8,7,20.1c0.1,1.5-0.1,3,0,4.5c0.3,6.3-1.5,8.6-8,9.7c-0.4-0.7-0.7-1.5-1.1-2.2c1.3-1,2.6-2.1,4-3.2
			c-1.1-0.6-2.1-1.1-3-1.6c3.4-5.3,2.9-19.2-1.4-23.9C246.5,103.1,243.8,103.4,241.9,103z"/>
		<path class="st14" d="M217,99.2c-0.4-0.6-1.3-1.5-1.1-1.7c3-3.7,4.6-8.4,10.6-9.5c3.2-0.6,5.8-4.8,8.4-7.6
			c1.1-1.1,1.5-2.9,2.2-4.3c0,2.9,0.1,5.8-0.1,8.7c-0.2,4.1-0.6,8.1-1,12.2C229.6,97.7,223.3,98.4,217,99.2z"/>
		<path class="st30" d="M221.9,180c3-7.3,6-14.7,9-22c2.7,0.3,5.3,0.6,8,0.9c-1.1,3.4-2.1,6.8-3.3,10.1c-1.5,4.4-3.2,8.7-4.8,13.1
			C227.9,181.5,224.9,180.8,221.9,180z"/>
		<path class="st21" d="M146.7,244.8c8.5-1.8,15.5-5.7,20.5-13.1c1.5-2.2,3.5-3.9,5.4-5.8c0.1-0.1,1.1,0.8,1.6,1.3
			c-0.4,1.9-0.9,3.7-1.3,5.6c-3.9,7.5-10.9,11.1-18.1,14.5c-1.9,0.9-3.9,1.8-5.8,2.6c-2.7-0.2-5.9,3.8-8-1
			C142.9,247.6,144.8,246.2,146.7,244.8z"/>
		<path class="st31" d="M191,201c-1-4.9-1.9-9.8-2.9-14.8c0.3-0.4,0.6-0.8,0.9-1.2c5.7,3.3,11.3,6.7,17,10c-3,3-6,6-9.1,9
			c-1-0.4-1.9-0.8-2.9-1.3C193,202.2,192,201.6,191,201z"/>
		<path class="st32" d="M236,96.9c0.3-4.1,0.7-8.1,1-12.2c0.2-2.9,0.1-5.8,0.1-8.7c1-3.6,1.9-7.3,2.9-10.9c0.1-0.1,0.2-0.3,0.3-0.4
			c0.9,1.5,2.5,2.9,2.6,4.4c0.4,8,0.3,16,0.4,24c-1.5,0.9-2.9,1.8-4.4,2.7c-0.6,0.4-1.2,0.8-1.8,1.2C236.7,97,236.3,97,236,96.9z"/>
		<path class="st33" d="M127.1,75.1c3.6,2.8,6.4,5.4,5.5,11c-0.5,3.2,1.2,7.2,2.8,10.3c4.9,8.9,12.3,15.5,20.6,21.2
			c1.6,1.1,3.2,2.3,4.8,3.5c-1,0-2.1,0.3-2.9-0.1c-2.7-1.5-5.4-3.3-8-4.9c-2.5-2.2-5.2-4.2-7.4-6.6
			C133.9,99.6,124.9,89.9,127.1,75.1z"/>
		<path class="st34" d="M247.9,133c0.4,0.7,0.7,1.5,1.1,2.2c-6,7.2-14.4,9.3-23.1,10.7c-1.2-1-2.3-2.5-3.7-2.8
			c-3.7-0.9-7.6-1.3-11.4-1.9c4.4-0.3,8.8-0.7,13.2-1c0.1,0.4,0.3,0.9,0.4,1.3c4.1-1.6,8.2-3.3,12.4-4.9c-0.3-0.6-0.7-1.2-1-1.8
			c1.2-0.8,2.4-1.5,3.6-2.2c0.5,0.8,0.9,1.5,1.2,2.1c0.1-0.5,0.3-1,0.4-1.4C243.4,133.2,245.6,133.1,247.9,133z"/>
		<path class="st35" d="M247.9,133c-2.3,0.1-4.6,0.2-6.8,0.3c-0.1,0.5-0.3,1-0.4,1.4c-0.4-0.7-0.8-1.3-1.2-2.1
			c-1.1,0.7-2.3,1.5-3.6,2.2c-3.9,1.8-7.9,3.6-11.8,5.4c-4.4,0.3-8.8,0.7-13.2,1c-1.4-0.4-2.7-0.7-4.1-1.1c0.6-1.2,1.1-2.4,1.6-3.4
			c2.7,0.5,5.2,0.9,7.8,1.4c-0.8,0.4-1.6,0.9-3.5,1.9c11.9-0.1,20.2-5.3,28.1-11.2c-0.1-0.6-0.2-1.2-0.2-1.8c-3.2,0-6.3,0-9.5,0
			c-2-0.3-4-0.7-6-1c6,0.2,12.1,0.5,18.1,0.7c0.6,0,1.3,0.1,1.9,0.1c1.3,0.5,2.6,0.9,3.9,1.4c0.9,0.5,1.8,1,3,1.6
			C250.5,130.9,249.2,131.9,247.9,133z"/>
		<path class="st36" d="M198,48c-1.7,1.4-3.4,2.9-5.1,4.3c-0.6-1.5-1.2-2.9-1.8-4.4c-3-4.7-6-9.3-9-14c2.6-1.3,5.2-2.6,7.8-3.8
			C192.5,36.1,195.2,42,198,48z"/>
		<path class="st37" d="M191,201c1,0.6,2,1.2,3,1.8c1,1.3,1.8,2.7,2.9,3.8c2.2,2.1,4.5,4.1,6.8,6.1c0.1,0.2,0.3,0.3,0.4,0.5
			c-1.6,1.2-3.2,2.4-4.8,3.7c-1.4,1.2-2.8,2.5-5,4.5c-0.6-0.2-2.4-0.7-4.3-1.3C190.4,213.7,190.7,207.3,191,201z"/>
		<path class="st38" d="M126.8,67.3c2.1-1.4,4.1-2.9,6.2-4.3c2.8,1.1,5.7,2.1,8.3,3.1c-1.1,2.3-2.6,5.3-4.1,8.3
			c0.4,0.4,0.9,0.7,1.3,1.1c4.2-1.5,8.3-3,12.5-4.5c-2.9,2-6,3.8-8.8,5.9c-1.5,1.1-2.8,2.6-4.2,4C134.3,76.4,130.6,71.8,126.8,67.3z
			"/>
		<path class="st39" d="M126,34c-4,1.5-8.4,2.3-11.8,4.7c-5.1,3.6-9.5,8.2-14.2,12.4c-2-0.7-4-1.4-6-2c4.9-5.8,10.1-11.3,17.8-13.3
			c4.1-1.1,8.3-2,12.4-2.9C124.8,33.2,125.4,33.6,126,34z"/>
		<path class="st40" d="M230.9,182.2c1.6-4.4,3.2-8.7,4.8-13.1c1.2-3.4,2.2-6.8,3.3-10.1c1.7-2.7,4.9-5.3-0.1-7.9
			c-1.4-0.9-2.7-1.9-4.7-3.2c5.3-1,10.9,3.9,9.9,8.1c-1.9,7.6-4.2,15.1-6.5,22.5C236.6,181.7,234.7,183.8,230.9,182.2z"/>
		<path class="st41" d="M127.1,75.1c-2.3,14.8,6.8,24.5,15.5,34.3c2.2,2.5,4.9,4.4,7.4,6.6c-0.4,0.4-0.7,0.7-1.1,1.1
			c-3.9-3.2-7.8-6.4-11.7-9.6c-2.9-4.2-5.8-8.5-8.7-12.7c-4.5-6.7-5.7-14-4.5-21.8c0-0.7,0-1.3,0.1-2
			C125.1,72.4,126.1,73.7,127.1,75.1z"/>
		<path class="st42" d="M187,88.2c3,0,5.6,4.9,9,0.8c-0.5,1.2-1.1,2.3-1.4,3.5c-0.5,1.5-1.2,3.2-0.9,4.6c0.2,1,2,1.7,3.2,2.3
			c2.5,1.2,5.1,2.1,7.7,3.2c-0.2,0.7-0.5,1.3-0.7,2c-5.2-1.4-10.5-2.4-15.5-4.4C183.6,98.4,183,91.5,187,88.2z"/>
		<path class="st43" d="M166,177.8c1.3,0.5,2.6,0.9,4,1.4c1.8,1.2,3.5,2.4,5.3,3.5c3.1,2,4.7,4.5,3.7,8.3c-0.6-1.3-1.3-2.6-1.9-3.8
			c-9.2-6.7-19.4-11.1-30.6-13.1c-2.7-0.5-5.8,0.9-8.7,1.5c-2.3,0.5-4.6,1-6.9,1.6c-3.6,1-7.2,2-10.9,3c0.3-0.6,0.7-1.2,1-1.8
			c2.7-1.1,5.3-2.2,8-3.2c3-1.3,6.1-2.6,9.1-3.9C147.4,173.3,156.7,175.6,166,177.8z"/>
		<path class="st3" d="M113,65.1c-1.9-1.5-3.8-2.9-5.7-4.4c-0.2,0.2-0.4,0.3-0.6,0.5c0.5,1,1.1,2,2.1,3.9c-2-1.2-3.2-1.9-4.9-2.9
			c0.4,1.5,0.7,2.6,1,3.8c-2.1-0.8-4-1.5-5.9-2.1c-2.3-2-4.7-4-7-6c-1.5-2.3-3-4.5-4.5-6.8c0.3-0.2,0.5-0.4,0.8-0.6
			c1.7,1.6,3.3,3.1,5.6,5.3c0-1.9,0-2.9,0-4.3c2.4,2.6,4.5,4.8,6.6,7.1c0.3-0.2,0.6-0.4,0.9-0.6c-0.3-0.9-0.5-1.9-1-3.6
			c3.2,1.4,5.9,2.6,8.6,3.7C110.3,60.4,111.7,62.7,113,65.1z"/>
		<path class="st44" d="M248.9,128.2c-1.3-0.5-2.6-0.9-3.9-1.4c0-5,0.3-10-0.1-14.9c-0.3-2.7-1.9-5.3-2.9-8c0.1-0.3,0.1-0.6,0-0.9
			c1.9,0.4,4.6,0.1,5.6,1.2C251.8,108.9,252.3,122.9,248.9,128.2z"/>
		<path class="st45" d="M92.9,63.7c1.8,2.5,3.6,5,5.6,7.8c-0.9-0.2-1.7-0.4-2.5-0.5c-5.4-5.5-10.7-11.1-16.3-16.8
			c0.5,1.5,0.9,2.8,1.4,4c-2.4-3.4-4.7-6.8-7.1-10.1c8.1,1,12.4,7.1,17,12.8C91.6,61.8,92.2,62.8,92.9,63.7z"/>
		<path class="st46" d="M114.9,110.1c3.3,1.8,6.7,3.4,9.9,5.4c3.6,2.3,7.1,4.7,10.3,7.5c1.9,1.6,3.2,4,4,6.8
			c-4.7-3.9-13.3-2.6-14.2-11.5c-0.3-2.8-5-3.9-7.9-2.2c-0.4,0-0.7-0.1-1.1-0.1C115.6,114,115.3,112,114.9,110.1z"/>
		<path class="st35" d="M116,116c0.4,0,0.7,0.1,1.1,0.1c-0.3,1-0.7,1.9-1,2.9c-4.1-2.6-8.1-5.2-12.2-7.9c-4-3.3-8-6.6-12-9.9
			c2-3,4.1-2.9,6.8-0.5c2.3,2,5,3.6,7.5,5.3c0.5,1.6,0.6,3.9,1.7,4.8C110.2,112.8,113.2,114.3,116,116z"/>
		<path class="st16" d="M231,127c3.2,0,6.3,0,9.5,0c0.1,0.6,0.2,1.2,0.2,1.8c-8,5.9-16.2,11-28.1,11.2c1.9-1.1,2.7-1.5,3.5-1.9
			c1.3-0.4,2.5-0.8,3.8-1.3C225.1,135.2,230,133.3,231,127L231,127z"/>
		<path class="st16" d="M137.1,107.6c3.9,3.2,7.8,6.4,11.7,9.6c3.9,2.3,7.7,4.7,12.7,7.7c-2.8-0.4-4.2-0.5-5.6-0.7
			c-4-2-8-4.1-11.9-6.1c-3-2.3-6-4.7-9-7C135.7,109.9,136.4,108.7,137.1,107.6z"/>
		<path class="st47" d="M94.5,71c3.9,3.2,7.8,6.4,11.8,9.6c-0.5,0.6-1.1,1.1-1.6,1.7c-4.2-2.4-8.4-4.8-12.6-7.3c-2.8-3-5.6-6-8.5-9
			c-0.2-1.4-0.4-2.8-0.7-4.2C86.7,64.9,90.6,67.9,94.5,71z"/>
		<path class="st48" d="M176,156c0.3,1.3,0.7,2.7,1,4c-1.3,0.3-2.7,0.7-4,1c-2.2-0.1-4.7-0.8-6.5-0.1c-4.5,1.9-7.5,0.4-10.2-4.5
			c3.1-0.1,6.3-0.2,9.4-0.1c1.5,0,2.9,0.4,4.3,0.6C172,156.7,174,156.3,176,156z"/>
		<path class="st49" d="M135,111c3,2.3,6,4.7,9,7c-1.3-0.1-2.8,0.3-3.7-0.3c-8.4-5.4-16.7-11-25-17.4c1.5,0.5,2.9,0.8,4.4,1.4
			c2.5,1,4.9,2.1,7.3,3.2C129.7,107,132.4,109,135,111z"/>
		<path class="st50" d="M210.9,114.9c-2.2,3.1-4.5,6.2-6.7,9.4c-1.6,0.5-3.3,0.9-5.9,1.7c2.7-4.5,4.8-8.7,7.6-12.4
			C207.5,111.6,210.4,110,210.9,114.9z"/>
		<path class="st51" d="M189.8,30.1c-2.6,1.3-5.2,2.6-7.8,3.8c-2-1.6-4-3.3-6.1-4.9c2.6-2.8,5.2-5.1,9.3-2.5
			c0.3,0.2,1.2-0.4,1.8-0.6C188,27.3,188.9,28.7,189.8,30.1z"/>
		<path class="st52" d="M187.1,156.8c1.6,2.7,3.2,5.4,4.9,8.2c-2.3-0.4-5.3,0-6.6-1.3c-2.3-2.3-3.5-5.7-5.2-8.7
			c0.8-0.3,1.7-1,2.3-0.8C184.1,154.8,185.5,155.9,187.1,156.8z"/>
		<path class="st36" d="M206.7,140.2c1.4,0.4,2.7,0.7,4.1,1.1c3.8,0.6,7.7,1,11.4,1.9c1.4,0.3,2.5,1.8,3.7,2.8
			c-8.6,0.6-16.7-0.5-23.9-6C203.6,140,205.1,140.1,206.7,140.2z"/>
		<path class="st53" d="M207.8,189.3c-3.9-1.5-8.6-2.5-6.1-8.8c2.1,1.5,4.4,3.2,6.7,4.8c0.2-0.2,0.4-0.4,0.6-0.6
			c-1.1-1.4-2.3-2.9-3.4-4.3c0.3-0.3,0.7-0.6,1-0.8c2.5,3.1,5,6.1,7.6,9.2c0,0.4-0.1,0.8-0.1,1.3
			C211.9,189.7,209.8,189.5,207.8,189.3z"/>
		<path class="st54" d="M235,64.1c-2.4-3.7-4.8-7.5-7.2-11.2c1.4-0.9,2.8-1.8,4.2-2.7c2.7,4.8,5.4,9.6,8.2,14.5
			c-0.1,0.1-0.2,0.3-0.3,0.4C238.3,64.8,236.7,64.4,235,64.1z"/>
		<path class="st55" d="M174.1,32.9c-1.7-1-3.3-2-5-3c-2.4-1.9-4.8-3.9-7.2-5.8c-0.1-0.2-0.3-0.2-0.5-0.2c-0.4-0.8-0.9-1.6-2.1-3.8
			c4,1.7,6.7,2.9,9.4,4c2.1,1.6,4.3,3.2,6.4,4.7C174.8,30.2,174.4,31.5,174.1,32.9z"/>
		<path class="st56" d="M175.2,28.9c-2.1-1.6-4.3-3.2-6.4-4.7c4.9-0.4,9.9-0.9,14.8-1.3c1.2,1,2.4,2,3.5,3.1
			c-0.6,0.2-1.5,0.8-1.8,0.6c-4.1-2.6-6.7-0.3-9.3,2.5C175.7,29,175.5,28.9,175.2,28.9z"/>
		<path class="st57" d="M82.9,61.8c0.2,1.4,0.4,2.8,0.7,4.2c-4.4-5.5-8.9-11-14-17.3c2.4-0.4,3.4-0.6,4.4-0.7
			c2.4,3.4,4.7,6.8,7.1,10.1C81.6,59.4,82.3,60.6,82.9,61.8z"/>
		<path class="st58" d="M175.8,147.1c0.1,0.3,0.2,0.5,0.3,0.8c-9.1,0.7-16.5-3.7-24-7.7c-1.1-3.3,1-1.8,2.2-1.4
			c6.1,2.4,12.2,4.9,18.3,7.3C173.6,146.6,174.7,146.8,175.8,147.1z"/>
		<path class="st59" d="M218.9,149c1.9,0,3.8,0,5.6,0c-5,4.9-10.7,5.6-16.7,3.7c-0.5-0.2-0.6-1.7-0.9-2.7
			C210.9,149.7,214.9,149.4,218.9,149z"/>
		<path class="st56" d="M223,194.4c-0.2,0.3-0.4,0.6-0.7,0.8c-2-0.1-3.9-0.1-5.9-0.2c-0.9-0.3-1.8-0.6-2.8-0.9
			c-5.5-1.7-11-3.2-16.5-5.1c-1-0.3-1.5-2.1-2.2-3.2c0.3,0.1,0.6,0.2,0.9,0.3c3.3,1.3,6.7,2.6,10,3.9c4.3,1,8.5,1.9,12.8,2.9
			C220.2,193.3,221.6,193.9,223,194.4z"/>
		<path class="st60" d="M238.8,151.1c5.1,2.5,1.8,5.2,0.1,7.9c-2.7-0.3-5.3-0.6-8-0.9c-5-0.3-10-0.6-14.9-0.9
			c6.7-0.7,13.3-1.2,19.9-2.2C237.1,154.8,237.9,152.4,238.8,151.1z"/>
		<path class="st11" d="M214,190c0-0.4,0.1-0.8,0.1-1.3c1.5-0.3,3-0.7,5.1-1.1c0,0-0.2-1.1-0.5-2.6c0.9,0.7,1.6,1.3,2.9,2.3
			c-0.5-1.8-0.8-3-1.4-4.8c2.5,0.7,4.7,1.2,6.8,1.7c-0.8,1-1.9,1.9-2.5,3c-0.6,1.2-0.9,2.6-1.3,3.9C220.1,190.7,217.1,190.3,214,190
			z"/>
		<path class="st61" d="M218.9,149c-4,0.3-8,0.7-12,1c-2.3-1.9-4.6-3.9-6.9-5.8c0.2-0.3,0.5-0.6,0.7-0.8
			C206.8,145.3,212.9,147.2,218.9,149z"/>
		<path class="st47" d="M195.9,186.1c-0.3-0.1-0.6-0.2-0.9-0.3c-2-0.3-4-0.5-6-0.8c-0.3,0.4-0.6,0.8-0.9,1.2c-1-1.5-2-3-3.1-4.8
			c1.4-0.3,3-0.3,4.3-0.9c2-1.1,4.1-3.4,5.9-0.6C196.2,181.5,195.7,184,195.9,186.1z"/>
		<path class="st62" d="M68,67c0.5-0.4,1-1,1.6-1.1c5.1-0.4,15,6.9,16.4,12.1c-6.1-3.6-12.2-7.2-18.2-10.8L68,67z"/>
		<path class="st63" d="M116,116c-2.8-1.7-5.8-3.1-8.3-5.2c-1.1-0.9-1.1-3.2-1.7-4.8c3,1.4,6,2.8,8.9,4.1
			C115.3,112,115.6,114,116,116z"/>
		<path class="st9" d="M236,96.9c0.3,0.1,0.7,0.1,1,0.2c1.8,0.6,3.6,1.4,5.5,1.9c2.1,0.5,4.3,0.8,6.4,1.2c-4,0-7.9-0.2-11.9,0
			c-1.6,0.1-3.2,1.1-4.8,1.7c-3-0.6-6-1.2-9-1.7c-2.1-0.4-4.1-0.7-6.2-1C223.3,98.4,229.6,97.7,236,96.9z"/>
		<path class="st64" d="M67.7,67.2C73.8,70.8,79.9,74.4,86,78c-0.3,0.7-0.6,1.3-0.9,2c-3.7-2.8-7.2-5.8-11.1-8.1c-1.6-1-4-0.6-6-0.9
			l0.1-0.1c-1-1-2-2-3-2.9C65.9,67.7,66.8,67.5,67.7,67.2z"/>
		<path class="st65" d="M92.9,63.7c-0.7-1-1.3-1.9-2-2.9c0.4-1,0.7-1.9,1.1-2.9c2.3,2,4.7,4,7,6c0.7,1.4,1.4,2.8,2.3,4.7
			C98.2,66.8,95.5,65.3,92.9,63.7z"/>
		<path class="st66" d="M231.1,127c-1.1,6.3-6,8.2-11.2,9.8c0.6-1,0.9-2.4,1.7-3.1C224.7,131.4,227.9,129.2,231.1,127z"/>
		<path class="st67" d="M183.3,108c-1.4-1.6-2.9-3.2-4.3-4.9c-0.9-1.8-1.8-3.6-2.8-5.3C184.6,100.9,185.2,101.7,183.3,108z"/>
		<path class="st68" d="M156,124.1c1.4,0.2,2.9,0.4,5.6,0.7c-5-3-8.8-5.3-12.7-7.7c0.4-0.4,0.7-0.7,1.1-1.1c2.7,1.7,5.3,3.4,8,4.9
			c0.8,0.4,1.9,0.1,2.9,0.1c0.8,1.1,1.5,2.3,2.3,3.4c-0.3,0.6-0.6,1.2-1,1.8C160.1,125.5,158,124.8,156,124.1z"/>
		<path class="st69" d="M113,65.1c-1.3-2.4-2.7-4.7-4-7.1c3.4,2.3,6.8,4.5,10.2,6.8C117.2,65.2,115.3,69.1,113,65.1z"/>
		<path class="st47" d="M214,190c3.1,0.3,6.1,0.7,9.2,1c-0.1,1.1-0.1,2.3-0.2,3.4c-1.4-0.5-2.8-1.1-4.3-1.4c-4.2-1-8.5-1.9-12.8-2.9
			c0.6-0.3,1.2-0.5,1.8-0.8C209.8,189.5,211.9,189.7,214,190z"/>
		<path class="st70" d="M180,220.5c1.6,0.7,3,1.4,5,2.2c-0.8,1.9-1.8,4.1-2.8,6.4c-0.3,0-0.6-0.1-0.9-0.1
			C180.9,226.1,180.4,223.1,180,220.5z"/>
		<path class="st46" d="M191,47.9c0.6,1.5,1.2,2.9,1.8,4.4c0,1.9,0.1,3.8,0.1,5.7c-0.5,0.6-1,1.2-1.5,1.8c-0.5-0.1-1-0.2-1.5-0.3
			C190.3,55.7,190.6,51.8,191,47.9z"/>
		<path class="st36" d="M131,26.1c-0.5,0.6-1.5,1.2-1.5,1.7c0,1.8,0.3,3.6,0.5,5.3c-0.4-0.4-0.8-0.8-1.1-1.1c-1.2-1.9-2.4-3.8-4-6.3
			c1.5-0.6,2.9-1.1,4.2-1.6C129.7,24.8,130.3,25.4,131,26.1z"/>
		<path class="st71" d="M248.9,100.2c-2.1-0.4-4.3-0.7-6.4-1.2c-1.9-0.5-3.7-1.3-5.5-1.9c0.6-0.4,1.2-0.8,1.8-1.2
			c3.7,1,7.4,2.1,11.2,3.1c0,0.6,0,1.2,0,1.8C249.7,100.6,249.3,100.4,248.9,100.2z"/>
		<path class="st72" d="M90,95c-2.2-1.6-6.9-1.6-3.7-7.2c1.5,1.7,2.6,3,3.7,4.3C90,93,90,94,90,95z"/>
		<path class="st68" d="M176.2,97.8c0.9,1.8,1.8,3.6,2.8,5.3c-2.6-2.7-5.3-5.4-7.9-8.1c0.7-0.3,1.3-0.6,2-0.9
			C174,95.3,175.1,96.6,176.2,97.8z"/>
		<path class="st29" d="M90,148c3.8,3.1,7.6,6.3,11.5,9.4c7.2,5.6,15.5,7.8,24.5,7.5c-1,1.2-1.7,2.9-2.9,3.5
			c-3.9,1.8-8,3.2-12.1,4.7c-1.7,0.3-3.3,0.7-5,1c-4.7-0.2-9.5-0.2-14.2-0.6c-2.6-0.2-5.2-1.2-7.8-1.8c-1-1.9-2-3.8-3-5.7
			c1.3-3,2.4-6,3.8-8.9C86.4,154,88.3,151,90,148z"/>
		<path class="st73" d="M57.8,176.2c-1.1-0.5-2.1-1.1-3.2-1.6c-1.5-0.5-3-1-4.5-1.6c0-0.3,0-0.5,0-0.8c-2.9-0.5-5.9-1.5-8.8-1.5
			c-4-0.1-5.1-1-4.2-4.9c6.2,1.8,7,1.4,6.8-3.4c0.7-1.5,1.5-2.9,2.2-4.4c1.9,0.4,3.9,0.8,5.8,1.3c6.4,1.5,12.8,3,19.3,4.5
			c-0.8,2.2-1.2,4.5-2.4,6.4c-0.8,1.2-3.2,2.6-4.1,2.2C60.2,170.3,59.2,173.4,57.8,176.2z"/>
		<path class="st74" d="M37.1,211c2,0,3.9,0.1,5.9,0.1c0.7,0.3,1.5,0.5,2.2,0.8c1.7,1,3.4,2.4,5.3,2.9c13.6,3.4,27.4,3.6,41.3,1.8
			c1.8-0.2,3.6-0.3,5.4-0.4c-4.2,6.9-11.8,6-18.1,6.9c-7.5,1.1-15.4,0.1-23.1,0C48.1,221.4,41.3,218.2,37.1,211z"/>
		<path class="st30" d="M32.7,179.2c-1.2-0.8-2.4-1.5-3.6-2.3c0.3-1.3,1.1-2.9,0.7-4c-3.5-9.5-2.1-19.1-0.6-28.7
			c0.3-2-0.1-4.2-0.2-6.3c3.3-4.3,6.6-8.7,9.9-13c-0.1,1.3-0.1,2.6-0.3,3.8c-1.6,6.9-3.6,13.8-4.7,20.8c-0.4,2.6,1.3,5.5,2,8.3
			c-3.6,2.7-4.5,6.5-2.3,10c1.5,2.3,4.8,3.4,7.3,5.1c-0.3,2.3-0.6,4.6-0.9,6.8C37.2,175.3,36.6,175.3,32.7,179.2z"/>
		<path class="st75" d="M111,173.1c4-1.5,8.2-2.9,12.1-4.7c1.2-0.6,2-2.3,2.9-3.5c1.7-3.6,6.8-6.1,11-5.7c2.9,0.3,6,0.7,8.8,0.1
			c3.6-0.8,5.4,0.3,6.2,3.6c-6.9,0.7-13.7,1.3-20.8,2c-0.6,1.7-1.4,3.7-1.9,5.1c3,0.3,5.9,0.7,8.7,1c-3,1.3-6.1,2.6-9.1,3.9
			c-4,0.5-8.1,0.7-12,1.7c-8.1,2.1-16.2,4.6-24.2,7c-0.1-0.5-0.3-0.9-0.4-1.4c5.6-1.8,11.1-3.6,16.7-5.3
			C111.1,176.3,113.2,175.9,111,173.1z"/>
		<path class="st76" d="M29.1,138c0.1,2.1,0.5,4.2,0.2,6.3c-1.6,9.6-2.9,19.2,0.6,28.7c0.4,1.1-0.4,2.6-0.7,4
			c-1.4-1-2.9-1.9-4.3-2.9c-0.6-6.7-1.4-13.5-1.7-20.2c-0.2-2.9,0.5-5.9,0.8-8.8C25.7,142.6,27.4,140.3,29.1,138z"/>
		<path class="st31" d="M42,210.2c-8.1-3.3-13.7-9.1-17-17.1c0.8-0.4,1.7-1.3,2.2-1.2c3,0.9,5.9,2,8.9,3c0.7,0.4,1.3,0.7,2,1.1
			C39.3,200.7,40.7,205.4,42,210.2z"/>
		<path class="st77" d="M121,178.2c-0.3,0.6-0.7,1.2-1,1.8c-4.6,1.3-9.2,2.7-13.8,4c-12.7,3.4-25.5,6.7-38.2,10
			c-0.5-0.3-1.1-0.6-1.6-1c0.9-0.7,1.7-1.3,2.6-2C86.3,186.8,103.7,182.5,121,178.2z"/>
		<path class="st6" d="M84,171.7c2.6,0.6,5.2,1.5,7.8,1.8c4.7,0.4,9.5,0.4,14.2,0.6c-4.2,1.6-8.4,3.3-12.7,4.9
			c-0.4,0.2-0.9,0.3-1.4,0.3c-9.4-0.1-18.7-0.2-28.1-0.4c3.4-1.3,6.9-2.5,10.3-3.8c3.3-1,6.6-2.1,9.9-3.1L84,171.7z"/>
		<path class="st78" d="M74.1,175.1c-3.4,1.3-6.9,2.5-10.3,3.8c-2-0.9-4-1.8-6.1-2.7c1.4-2.8,2.5-5.9,6.8-3.8c0.9,0.4,3.3-1,4.1-2.2
			c1.2-1.9,1.7-4.2,2.4-6.4c1.7,0.7,3.3,1.4,5,2.1C75.8,169,71.2,171.2,74.1,175.1z"/>
		<path class="st79" d="M42,210.2c-1.3-4.7-2.6-9.5-4-14.2c2.7,0.4,5.3,0.7,8,1.1c0,1.6-0.3,3.3,0.2,4.7c1.4,3.8,3.2,7.5,4.8,11.2
			c-1.9-0.4-3.9-0.7-5.8-1.1c-0.7-0.3-1.5-0.5-2.2-0.8C42.6,210.8,42.3,210.5,42,210.2z"/>
		<path class="st80" d="M32.7,179.2c3.9-4,4.4-3.9,7.4,0.5c0.3-2.3,0.6-4.6,0.9-6.8c3-0.2,6-0.5,9-0.7c0,0.3,0.1,0.5,0,0.8
			c-0.4,1.5-1.6,4.1-1.2,4.4c1.8,1.3,4.2,1.9,6.3,2.8C47.7,182.1,40.2,182,32.7,179.2z"/>
		<path class="st81" d="M24.2,188.8c-2.8-4.3,0.4-5.3,3-5.2c3.9,1.9,7.8,3.8,11.8,5.7c0.8,4.1-2.9,1.5-4,2.8
			C31.4,191,27.8,189.9,24.2,188.8z"/>
		<path class="st82" d="M37.1,211c4.2,7.3,11,10.5,18.9,12.1c2.1,0.6,4.2,1.2,6.3,1.8c-0.4,0.6-0.8,1.3-1.2,1.9
			c-8.7-0.9-16.4-3.9-23.1-9.6C35.2,213.7,35.1,212.9,37.1,211z"/>
		<path class="st79" d="M34.9,192.1c1.1-1.2,4.9,1.3,4-2.8c5.3,0.9,10.7,1.9,16,2.8c0.3,1,0.6,1.9,1,2.9c-5.3-0.3-10.6-0.7-15.9-1
			C38.4,193.3,36.6,192.7,34.9,192.1z"/>
		<path class="st73" d="M55.3,180.2c-2.1-0.9-4.5-1.5-6.3-2.8c-0.4-0.3,0.7-2.9,1.2-4.4c1.5,0.5,3,1,4.5,1.6c1.4,1.5,2.8,3,4.8,5.1
			C57.5,179.9,56.4,180,55.3,180.2z"/>
		<path class="st83" d="M56,194.9c-0.3-1-0.6-1.9-1-2.9c4.7-0.3,9.3-0.7,14-1c-0.9,0.7-1.7,1.3-2.6,2c0.5,0.3,1.1,0.6,1.6,1
			C64,194.3,60,194.6,56,194.9z"/>
		<path class="st53" d="M34.9,192.1c1.7,0.6,3.4,1.3,5.1,1.9c-1.3,0.3-2.7,0.6-4,1c-2.9-1-5.9-2.2-8.9-3c-0.6-0.2-1.5,0.7-2.2,1.2
			c-0.3-1.4-0.5-2.8-0.8-4.2C27.8,189.9,31.4,191,34.9,192.1z"/>
		<path class="st84" d="M29.1,138c-1.7,2.3-3.4,4.6-5.2,6.9c0.3-3.3,0.6-6.7,0.9-10c0.1,0.8,0.2,1.6,0.5,3c3.4-4.4,6.5-8.4,9.6-12.3
			c1.4-1.2,2.7-2.4,4.1-3.6c0,1,0,2,0,2.9C35.7,129.3,32.4,133.7,29.1,138z"/>
		<path class="st31" d="M131,26.1c-0.6-0.7-1.3-1.3-1.9-2c12.3-2.4,24.6-4.8,37-7.2c4.6,1.3,9.3,2.6,13.9,3.9
			c1.2,0.7,2.4,1.4,3.6,2.1c-4.9,0.4-9.9,0.9-14.8,1.3c-2.7-1.2-5.4-2.3-9.4-4c1.2,2.2,1.6,3,2.1,3.8c-7.5,1.7-15,3.4-22.5,5.2
			C136.3,28.1,133.6,27.1,131,26.1z"/>
		<path class="st76" d="M240.2,64.7c-2.7-4.8-5.4-9.6-8.2-14.5c0.7-0.1,1.3-0.2,2-0.3c7.3,7.2,11.3,16.1,13.2,26
			c-0.1,3.5,0.3,7-0.3,10.3c-0.5,2.4-2.4,4.6-3.7,6.9c-0.1-8-0.1-16-0.4-24C242.7,67.6,241.1,66.2,240.2,64.7z"/>
		<path class="st29" d="M187.1,19.9c5.6,1.8,11.2,3.5,16.8,5.3c-0.3,1.3-0.7,2.5-1,3.8c-0.5,0-1.1,0-1.6,0
			c-3.4-0.7-6.7-1.4-10.1-2.1c-2.5-2-4.9-4.1-7.8-6.5C185,20.1,186,20,187.1,19.9z"/>
		<path class="st85" d="M221,58c-0.2-0.3-0.4-0.6-0.6-0.9c0.8-4.2,1.5-8.4,2.5-12.6c0.3-1.2,1.3-2.2,2-3.3c2.1,1.9,4.1,3.9,6.2,5.8
			c-2.2,2.5-4.5,5.1-6.8,7.6C223.2,55.7,222.1,56.8,221,58z"/>
		<path class="st86" d="M187.1,19.9c-1.1,0.1-2.1,0.3-3.8,0.5c2.9,2.5,5.4,4.5,7.8,6.5c1.3,2.4,2.5,4.8,3.8,7.2c2,5.9,4,11.9,6,17.8
			c-1-1.3-2-2.5-3-3.8c-2.7-6-5.4-11.9-8.1-17.9c-0.9-1.4-1.9-2.8-2.8-4.2c-1.2-1-2.4-2-3.5-3.1c-1.2-0.7-2.4-1.4-3.6-2.1
			C181.9,17.4,184.5,19.1,187.1,19.9z"/>
		<path class="st87" d="M202.8,29c0.3-1.3,0.7-2.5,1-3.8c1.4,0.6,2.8,1.2,4.2,1.8c-3.6,0.1-2.5,2.9-2.5,4.7
			c0.1,4.6,0.9,9.3,0.4,13.8c-0.3,2.6-2.6,5-4,7.5c2.6-5.4,3.5-10.9,1.9-16.7C203.2,33.9,203.1,31.4,202.8,29z"/>
		<path class="st88" d="M224.9,41.1c-0.7,1.1-1.8,2.1-2,3.3c-1,4.2-1.7,8.4-2.5,12.6c-0.5-1.6-1.6-3.3-1.5-4.9
			c0.2-4.7,0.8-9.5,1.2-14.2C221.7,39,223.3,40.1,224.9,41.1z"/>
		<path class="st64" d="M221,58c1.1-1.1,2.2-2.2,3.3-3.4c2.3-2.5,4.5-5,6.8-7.6c1,1,2,2,3,3c-0.7,0.1-1.3,0.2-2,0.3
			c-1.4,0.9-2.8,1.8-4.2,2.7c-1.3,1.8-2.4,3.8-4,5.4C223.5,58.7,222,58.1,221,58z"/>
		<path class="st89" d="M146.7,244.8c-1.9,1.4-3.8,2.8-5.7,4.1c-0.3-0.5-0.7-1-1-1.5c0.1-1.9,1.2-4.6,0.3-5.6
			c-2.8-3.2-1.6-6.5-1.3-9.8c0.3-2.8,0.5-5.5,0.8-8.3c-3.3-2.5-6.7-5-10-7.5c-0.5-0.8-1.1-1.6-1.6-2.4c0.3-0.2,0.6-0.3,0.9-0.4
			c6.5-4.4,8.5-4.2,14.9,0.8c1.2,0.9,3.3,0.5,5.1,0.7c0.7,0.7,1.4,1.3,2,2c-0.9,2.9-3.7,5.5-0.4,8.8c0.7,0.7,0.2,2.9-0.2,4.3
			C149.3,235,148,239.9,146.7,244.8z"/>
		<path class="st16" d="M133.9,245c-0.2,0.1-0.5,0.3-0.7,0.3c-1.7,0.3-3.4,0.5-5.1,0.8c-0.7-0.4-1.4-0.9-2.1-1.3
			c-0.7-0.6-1.4-1.8-2-1.8c-2.8,0.1-5.5,0.6-8.3,0.9c0.6-0.4,1.2-0.8,2.1-1.4c-3-0.5-5.5-0.9-7.9-1.3c6.6-0.5,13.2-0.9,19.7-1.7
			c2.2-0.3,4.2-1.6,6.3-2.5C135.2,239.6,134.6,242.3,133.9,245z"/>
		<path class="st76" d="M128.1,246c1.7-0.3,3.4-0.5,5.1-0.8c-1.3,5.4-5.9,7.4-10.2,9.7l-0.5-0.1l-0.5,0.1c-3.4-0.5-3.3-2.4-1.2-4.2
			C123.1,249,125.7,247.6,128.1,246z"/>
		<path class="st9" d="M133.9,245c0.6-2.7,1.3-5.3,1.9-8c1.3-4.4,2.6-8.8,4-13.2c-0.3,2.8-0.6,5.5-0.8,8.3c-0.3,3.3-1.5,6.6,1.3,9.8
			c0.9,1-0.1,3.7-0.3,5.6c-1.4-1.1-2.8-2.1-4.4-3.3C135.6,244.1,134.8,244.5,133.9,245z"/>
		<path class="st16" d="M77,252.1c-2-1.3-4.1-2.6-6.1-4c1.1-0.2,2.3-0.7,3.2-0.5c2.9,0.8,5.7,2,8.5,3.1c0.3-0.5,0.5-0.9,0.8-1.4
			c-1.8-1.7-3.7-3.5-5.5-5.2c5.4,1.7,10.6,4.8,16.6,1.7c0.5-0.3,1.3,0,1.9,0.1c4.9,0.3,9.8,0.6,14.7,1l-0.1,0.3
			c-4,1.3-7.9,2.6-11.9,3.9c-2.6,0-5.1,0-9.3,0c2.1,2.5,3.2,3.7,4.3,5C88.3,254.7,82.7,253.4,77,252.1z"/>
		<path class="st90" d="M94,256c-1.1-1.3-2.1-2.5-4.3-5c4.2,0,6.7,0,9.3,0c4.6,0,9.4,0.5,13.9-0.2c2.7-0.4,4,0.1,5,2.2
			c0,1,0,2,0,2.9c-4.3,0.7-8.6,1.4-12.9,2C101.3,257.3,97.7,256.6,94,256z"/>
		<path class="st12" d="M139.8,223.8c-1.3,4.4-2.6,8.8-4,13.2c-2.1,0.9-4.1,2.2-6.3,2.5c-6.5,0.8-13.1,1.1-19.7,1.7
			c-3.6-0.1-4.2-1.4-2.6-4.7c2.3-4.7,0.7-7.3-4.2-7.3c-3.7,2-7.4,4-11,5.9c-6,0-12-0.1-18-0.1c-1.9-0.1-3.9-0.1-5.8-0.2
			c-0.3-0.4-0.6-0.7-0.9-1.1c-0.4-1.1-0.9-2.2-1.3-3.3c5.8-0.5,10.9-0.9,16.1-1.3c0.6-0.1,1.3-0.2,1.9-0.2
			c9.7-0.2,19.1-1.5,27.9-5.9c1.4-1,2.8-2.1,4.1-3.1c4.6-1.2,9.3-2.4,13.9-3.6C133.2,218.8,136.5,221.3,139.8,223.8z"/>
		<path class="st44" d="M116,219.9c-1.4,1-2.8,2.1-4.1,3.1c-10.7,1.6-21.4,3.2-32,4.8c-6.3-0.4-12.5-0.7-18.8-1.1
			c0.4-0.6,0.8-1.3,1.2-1.9c17.2,1.2,34.2-0.4,50.8-4.8C114,220,115,220,116,219.9z"/>
		<path class="st91" d="M82.1,229.2c-5.2,0.4-10.3,0.8-16.1,1.3c0.5,1.1,0.9,2.2,1.3,3.3c-6.4-1.2-12.7-2.5-19.1-3.7
			c-0.2,0-0.3-0.1-0.5-0.1c0.1-1.3,0.2-2.6,0.3-3.9C59.1,229.8,70.6,228.8,82.1,229.2z"/>
		<path class="st92" d="M79.8,227.9c10.7-1.6,21.4-3.2,32-4.8c-8.8,4.4-18.2,5.6-27.9,5.9C82.6,228.6,81.2,228.2,79.8,227.9z"/>
		<path class="st43" d="M48,226c-0.1,1.3-0.2,2.6-0.3,3.9c-0.5,0-0.9,0-1.4,0c-1.8-2.3-3.5-4.6-5.3-7C43.3,223.9,45.7,224.9,48,226z
			"/>
		<path class="st93" d="M68.2,234.8c1.9,0.1,3.9,0.1,5.8,0.2c-1,1-2,2-3,3c2.3,2,4.6,4.1,6.9,6.1c1.8,1.7,3.7,3.5,5.5,5.2
			c-0.3,0.5-0.5,0.9-0.8,1.4c-2.8-1-5.6-2.2-8.5-3.1c-0.9-0.3-2.1,0.3-3.2,0.5c-3-1.7-6-3.3-9-5c-1.3-2.7-2.7-5.3-4-8
			C61.3,235,64.7,234.9,68.2,234.8z"/>
		<path class="st94" d="M57.9,235.1c1.3,2.7,2.7,5.3,4,8c-2.3-1.3-4.7-2.6-7-3.9c-2.7-2.4-5.4-4.7-8.2-7.1c-0.2-0.7-0.4-1.5-0.5-2.2
			c0.5,0,1,0,1.4,0c0.2,0.1,0.3,0.1,0.5,0.1C51.4,231.7,54.7,233.4,57.9,235.1z"/>
		<path class="st95" d="M117.9,255.9c0-1,0-2,0-2.9c0.3-2,0.7-4,1-6c2.3-0.8,4.7-1.5,7-2.3c0.7,0.4,1.4,0.9,2.1,1.3
			c-2.4,1.6-5,3-7.2,4.9c-2.1,1.8-2.3,3.6,1.2,4.2C120.7,255.4,119.3,255.7,117.9,255.9z"/>
		<path class="st73" d="M82.1,193.2c0.6,1.6,1.3,3.3,1.9,4.9c1.4,4.3,2.8,8.7,4.2,13c-0.4,0.2-0.7,0.4-1.1,0.5
			c-1.7-1.8-3.4-3.6-5.6-6c0.3,2.8,0.5,4.8,0.8,6.7c-0.3-0.5-0.7-0.9-1-1.4c-3.7,0.7-7.5,1.3-11.2,2c-1.3-5.3-2.6-10.6-3.9-15.9
			C71.4,195.8,76.7,194.5,82.1,193.2z"/>
		<path class="st1" d="M45.2,211.9c1.9,0.4,3.9,0.7,5.8,1.1c5.4,0.4,10.8,0.8,16.2,1.3c0.5,0,1.1,0,1.6,0c1,0.3,2.1,1,3.1,1
			c8.5-0.6,16.9-1.3,25.4-2c9.8-1.4,19.6-2.8,29.4-4.3c-2,1.4-3.8,3.4-5.9,4c-3.6,0.9-7.5,0.9-11.2,1.3c-0.4,0-0.8,0.4-1.5,0.8
			c1.1,0.8,2,1.4,2.9,2c-0.8,1.1-1.5,2-2.1,2.9c-2.2-0.2-4.4-0.3-6.6-0.5c0.5-4.6-3.2-2.6-5.2-3.2c-1.8,0.1-3.6,0.2-5.4,0.4
			c-13.9,1.8-27.7,1.6-41.3-1.8C48.5,214.3,46.9,212.8,45.2,211.9z"/>
		<path class="st96" d="M82.1,193.2c-5.3,1.3-10.7,2.6-16,3.9c-2,0-4,0.1-5.9,0.1c-4.4,0-8.8,0-13.1,0c-0.3-0.1-0.6-0.1-1-0.2
			c-2.7-0.4-5.3-0.7-8-1.1c-0.7-0.4-1.3-0.7-2-1.1c1.3-0.3,2.7-0.6,4-1c5.3,0.3,10.6,0.7,15.9,1c4-0.3,8-0.6,12.1-0.9
			c12.7-3.3,25.5-6.6,38.2-10c4.6-1.2,9.2-2.6,13.8-4c3.6-1,7.2-2,10.9-3c-3.7,1.7-7.2,3.9-11,5C107.3,186,94.7,189.5,82.1,193.2z"
			/>
		<path class="st74" d="M108.9,219.9c0.7-0.9,1.3-1.8,2.1-2.9c-0.9-0.6-1.8-1.3-2.9-2c0.7-0.4,1-0.7,1.5-0.8
			c3.8-0.4,7.6-0.4,11.2-1.3c2.2-0.6,4-2.6,5.9-4c8.8-3.3,15-1.6,22.2,6.1c-1.7-0.2-3.9,0.2-5.1-0.7c-6.4-4.9-8.4-5.2-14.9-0.8
			c-0.2,0.2-0.5,0.3-0.9,0.4c0.6,0.8,1.1,1.6,1.6,2.4c-4.6,1.2-9.3,2.4-13.9,3.6c-1,0-2,0.1-2.9,0.1
			C111.7,220,110.3,219.9,108.9,219.9z"/>
		<path class="st17" d="M97.4,213.1c-8.5,0.7-16.9,1.4-25.4,2c-1,0.1-2.1-0.6-3.1-1c0.4-0.4,0.7-0.8,1.1-1.3c3.7-0.7,7.5-1.3,11.2-2
			c0.3,0.5,0.7,0.9,1,1.4c-0.2-1.9-0.4-3.9-0.8-6.7c2.2,2.4,3.9,4.2,5.6,6c0.4-0.2,0.7-0.4,1.1-0.5c-1.4-4.3-2.8-8.7-4.2-13
			c0.7-1,1.4-2,2.1-3.1c0,1.5-0.3,3.1,0.2,4.4c1.8,4.4,0.8,10.5,6.8,12.6C94.5,212.4,95.9,212.8,97.4,213.1z"/>
		<path class="st97" d="M137.7,175.5c2.9-0.5,6-2,8.7-1.5c11.1,2,21.4,6.5,30.6,13.1c-7.3-3.1-14.4-6.7-21.9-9.1
			C149.6,176.4,143.5,176.3,137.7,175.5z"/>
		<path class="st82" d="M93,212.1c-6-2.2-4.9-8.2-6.8-12.6c-0.5-1.3-0.2-2.9-0.2-4.4C88.4,200.7,90.7,206.4,93,212.1z"/>
		<path class="st98" d="M202.8,29c0.3,2.4,0.4,5,1.1,7.3c1.6,5.9,0.7,11.4-1.9,16.7c-0.3-0.4-0.7-0.8-1-1.2c-2-5.9-4-11.9-6-17.8
			c2.1-1.7,4.2-3.4,6.3-5.1C201.7,29,202.2,29,202.8,29z"/>
		<path class="st35" d="M208.5,60c7.6-0.9,4.4,4.9,7.1,6.6c-0.3,0.5-0.6,1-0.9,1.5c-1.8-0.6-4.4-0.7-5.2-1.9
			C208.3,64.6,208.7,62.1,208.5,60z"/>
		<path class="st99" d="M72,116c1.9-3.7,4.4-7.2,5.5-11.2c0.8-2.9-0.2-6.2-0.5-10.4c8.1,3.5,14,8.6,18.2,15.5c2.3,0.4,4.6,0.7,6.8,1
			c-1.9,4-4.1,7.9-5.7,12c-1.2,3.1-1.6,6.6-2.3,9.9c-1-0.3-2-0.6-3.1-0.9c-4.9-2.7-9.8-5.5-14.7-8.2C74.8,121.2,73.4,118.6,72,116z"
			/>
		<path class="st23" d="M90,148c-1.7,3-3.6,6-5.2,9.1c-1.5,2.9-2.6,5.9-3.8,8.9c-4.8-5.5-11.7-6.2-18.2-7.9c1.1-0.2,2.2-0.3,2.4-0.3
			c-0.8-1.7-2.1-3.3-2.4-5c-0.6-3.6-1.5-6.7-5.6-7.9c-1-0.3-1.7-1.4-1.6-1.4c0.6-2.8,1.1-4.7,1.5-6.5c4.3,0.3,8.7,0.6,13,0.9
			C76.7,141.3,83.3,144.6,90,148z"/>
		<path class="st48" d="M138.1,171c-2.9-0.3-5.8-0.7-8.7-1c0.5-1.4,1.3-3.4,1.9-5.1c7-0.7,13.9-1.3,20.8-2c4.1,2.4,8.2,4.8,12.3,7.3
			c1.4,0.8,2.6,1.9,4,2.8c-0.9,1.8-1.6,3.2-2.4,4.7C156.7,175.6,147.4,173.3,138.1,171z"/>
		<path class="st45" d="M70,137.9c-4.3-0.3-8.7-0.6-13-0.9c5.2-4.9,9.1-11.5,17.6-12.6c-6.2-4.9-5.4-14.8-13.2-17.7
			c-0.5,0.4-1,0.8-1.5,1.2c1.1,1.4,2.1,2.7,3.2,4.1c-4.4-0.7-7.1-3.5-8.8-7.4c0.9-0.6,1.9-1.2,2.8-1.8c2.3,0.7,4.6,1.5,6.9,2.2
			c2.7,3.6,5.4,7.3,8,10.9c1.4,2.6,2.8,5.2,4.2,7.8c-0.4,3.7-0.8,7.5-1.2,11.2l0,0c-2.3,0-4.6,0.1-6.9,0.1c0.2-1.3,0.3-2.6,0.7-5.1
			c-2.8,1.9-4.5,3-6,4.2c0,0,0.8,1.2,1.3,1.9C66,136.7,68,137.3,70,137.9z"/>
		<path class="st50" d="M91,132.1c1,0.3,2,0.6,3.1,0.9c2.8,2.3,5.5,4.6,8.3,6.9c0.2,1.1,0.3,2.1,0.4,2.5c-3.8,0.5-7.7,1.2-11.5,1.4
			c-1.3,0-3.4-1.2-3.9-2.3c-0.6-1.4,0.2-3.3,0.4-5C91.3,136.9,89.8,133.4,91,132.1z"/>
		<path d="M176,156c-2,0.3-4,0.7-6,1c0.2-1.4,0.4-2.9,0.7-4.3C172.4,153.8,174.2,154.9,176,156z"/>
		<path class="st100" d="M64,136.1c-0.4-0.7-1.3-1.9-1.3-1.9c1.5-1.2,3.2-2.3,6-4.2c-0.3,2.6-0.5,3.9-0.7,5.1
			C66.8,135.4,65.4,135.7,64,136.1z"/>
		<path class="st45" d="M75,135c1.4-0.5,2.8-1,4.3-1.6c1.3,1.9,2.4,3.7,3.6,5.5c-0.1,0.3-0.3,0.5-0.4,0.8
			C80,138.2,77.5,136.6,75,135C75,135,75,135,75,135z"/>
		<path class="st101" d="M151,71c-4.2,1.5-8.3,3-12.5,4.5c-0.4-0.4-0.9-0.7-1.3-1.1c1.5-3,3-6.1,4.1-8.3c-2.6-1-5.5-2-8.3-3.1
			c4.3-0.9,8.5-1.8,12.8-2.9c1.5-0.4,2.9-1.4,4.4-2.2c0.6,0.7,1.2,1.4,1.9,2.1c1.4,3,2.7,6,4.1,9C154.4,69.7,152.7,70.3,151,71z"/>
		<path class="st16" d="M69.1,78.8c2.3,3.5,4.6,6.9,6.9,10.4c-2,2-4,3.9-6,5.9c-1.4-1.4-2.8-2.8-4.2-4.2c-1.6-0.9-3.2-1.8-4.7-2.7
			c0.4-0.2,0.8-0.4,1.2-0.6c-0.1-0.1-0.2-0.4-0.3-0.3c-3.3,0.6-6.6,1.3-9.9,1.9c2.6-4.4,5.1-8.9,7.8-13.3c1.2-2,2.8-3.9,4.2-5.8
			c1.3,2.4,2.6,4.7,3.9,7.1c-2.8,2.6-5.7,5.3-8.5,7.9c2.3-0.4,4-2.2,5.6-2.1C68.5,83.2,68.7,81.1,69.1,78.8z"/>
		<path class="st102" d="M39,122.1c-1.4,1.2-2.7,2.4-4.1,3.6c1.7-6.5,3.3-13,5.1-19.4c0.6-2.2,2-4.2,3-6.3c-0.2,5-0.5,10,4.8,12.8
			C44.9,115.9,41.9,119,39,122.1z"/>
		<path class="st103" d="M47.8,112.8c-5.3-2.9-5-7.9-4.8-12.8c3-3.7,6-7.3,9-11c3.3-0.6,6.6-1.3,9.9-1.9c0.1,0,0.2,0.2,0.3,0.3
			c-0.4,0.2-0.8,0.4-1.2,0.6c-6.4,0.3-10.1,4.5-13.2,9.3C44.6,102.4,43.9,107.7,47.8,112.8L47.8,112.8z"/>
		<path class="st104" d="M82.9,61.8c-0.6-1.2-1.2-2.4-1.8-3.7c-0.4-1.2-0.8-2.4-1.4-4c5.6,5.8,11,11.3,16.3,16.8c-0.5,0-1,0-1.5,0
			C90.6,67.9,86.7,64.9,82.9,61.8z"/>
		<path class="st105" d="M166,65.1c1.7,2.3,3.3,4.6,5,6.9c-1.1,0.2-3,0.7-3,0.6C167.2,70.2,166.6,67.6,166,65.1z"/>
		<path class="st20" d="M162,24.1c2.4,1.9,4.8,3.9,7.2,5.8c-3,1.8-6,3.6-9,5.5c-2.8,1.8-5.5,3.8-8.2,5.7c-2.4-2.7-4.7-5.3-7.1-8
			c1.6-0.3,3.3-0.2,4.6-0.8c3-1.5,5.9-3.3,8.7-5.2C159.6,26.2,160.7,25.1,162,24.1z"/>
		<path class="st39" d="M162,24.1c-1.2,1-2.3,2.1-3.7,3c-2.9,1.8-5.7,3.7-8.7,5.2c-1.3,0.7-3.1,0.6-4.6,0.8c-2-1.3-4-2.7-6-4
			c7.5-1.7,15-3.4,22.5-5.2C161.6,23.8,161.8,23.9,162,24.1z"/>
		<path class="st106" d="M146.2,51.9c-2.7,1.4-5.5,2.7-8.2,4.1c-2.2,0.5-4.4,1.1-6.6,1.6c-0.3-0.4-0.6-0.8-0.9-1.2
			c3.9-3.2,7.8-6.3,11.7-9.5C143.5,48.5,144.8,50.2,146.2,51.9z"/>
		<path class="st107" d="M216.4,195c2,0.1,3.9,0.1,5.9,0.2c-4.7,4.5-9.4,9.1-14.1,13.6c-1.4,1.4-2.7,2.8-4,4.3
			c-0.1-0.1-0.3-0.3-0.4-0.5c-0.2-4.6-3.1-6.9-6.9-8.6c3-3,6-6,9.1-9C209.5,195.1,212.9,195,216.4,195z"/>
		<path class="st99" d="M65.8,90.8c1.4,1.4,2.8,2.8,4.2,4.2c-2,3.4-4.1,6.7-6.1,10.1c-2.3-0.7-4.6-1.5-6.9-2.2
			C59.9,98.8,62.8,94.8,65.8,90.8z"/>
		<path class="st64" d="M68,71c6.7,4.5,13.3,9,20,13.5c-0.3,0.4-0.6,0.9-0.9,1.3C81,80.5,71.6,79.8,68,71C68,70.9,68,71,68,71z"/>
		<path class="st108" d="M69.1,78.8c-0.4,2.3-0.7,4.4-4.2,4.1c-1.6-0.1-3.3,1.8-5.6,2.1c2.8-2.6,5.7-5.3,8.5-7.9
			C68.3,77.6,68.7,78.2,69.1,78.8z"/>
		<path class="st109" d="M216.4,195c-3.5,0-7,0-10.4,0c-5.7-3.3-11.3-6.7-17-10c2,0.3,4,0.5,6,0.8c0.7,1.1,1.2,2.8,2.2,3.2
			c5.4,1.9,11,3.5,16.5,5.1C214.6,194.4,215.5,194.7,216.4,195z"/>
		<path class="st110" d="M196.9,204.1c3.7,1.7,6.7,4.1,6.9,8.6c-2.3-2-4.6-4-6.8-6.1c-1.1-1.1-1.9-2.5-2.9-3.8
			C195,203.2,196,203.6,196.9,204.1z"/>
		<path class="st20" d="M224.1,140.2c3.9-1.8,7.9-3.6,11.8-5.4c0.3,0.6,0.7,1.2,1,1.8c-4.1,1.6-8.2,3.3-12.4,4.9
			C224.3,141.1,224.2,140.7,224.1,140.2z"/>
		<path class="st111" d="M62.7,158.2c6.5,1.6,13.4,2.4,18.2,7.9c1,1.9,2,3.8,3,5.7c0,0,0.1,0.3,0.1,0.3c-2.6-2.1-5.3-4.1-7.9-6.2
			c-1.7-0.7-3.3-1.4-5-2.1c-6.4-1.5-12.8-3-19.3-4.5c-1.9-0.4-3.9-0.9-5.8-1.3c-8.3-6.1-9.4-10.7-4.7-19.8c0.7-1.3,1.2-2.7,1.8-4
			c6.6-7.3,13.3-14.5,19.9-21.8c-0.8,1.7-1.4,3.6-2.5,5.1c-2.8,3.6-5.8,7-8.7,10.5c-3.2,3.8-6.5,7.4-9.4,11.4
			c-4.1,5.5-3.2,9.5,2.4,13.9c1.5,0.9,2.9,2.4,4.5,2.7C53.7,156.9,58.3,157.4,62.7,158.2z"/>
		<path class="st112" d="M43.2,134.1c-0.6,1.3-1.2,2.7-1.8,4c-4.7,9.1-3.6,13.7,4.7,19.8c-0.7,1.5-1.5,2.9-2.2,4.4
			c-1.3-0.5-2.5-1-3.8-1.5c-1.4-1-2.7-2-4.1-3c-0.7-2.8-2.4-5.7-2-8.3c1.1-7,3.1-13.9,4.7-20.8c0.3-1.2,0.2-2.5,0.3-3.8
			c0-1,0-2,0-2.9c2.9-3.1,5.9-6.1,8.8-9.2c0,0,0,0,0,0c0.4,0,0.8,0.1,1.2,0.1c0.7,3.1,0.4,5.6-1.6,8.7
			C45.1,125.2,44.5,129.9,43.2,134.1z"/>
		<path class="st113" d="M36,157.8c1.4,1,2.7,2,4.1,3c-1,1.6-2,3.3-3,4.9c-0.9,3.9,0.2,4.9,4.2,4.9c2.9,0,5.9,1,8.8,1.5
			c-3,0.2-6,0.5-9,0.7c-2.5-1.7-5.8-2.8-7.3-5.1C31.4,164.3,32.4,160.5,36,157.8z"/>
		<path class="st19" d="M37.1,165.7c1-1.6,2-3.3,3-4.9c1.3,0.5,2.5,1,3.8,1.5C44.1,167.1,43.3,167.5,37.1,165.7z"/>
		<path class="st86" d="M108.9,219.9c1.4,0.1,2.8,0.1,4.1,0.2c-16.7,4.4-33.6,6.1-50.8,4.8c-2.1-0.6-4.2-1.2-6.3-1.8
			c7.7,0.1,15.5,1,23.1,0c6.3-0.9,13.8,0,18.1-6.9c2,0.6,5.7-1.4,5.2,3.2C104.5,219.5,106.7,219.7,108.9,219.9z"/>
		<path class="st27" d="M76.2,165.8c2.6,2.1,5.3,4.1,7.9,6.2c-3.3,1-6.6,2.1-9.9,3.1C71.2,171.2,75.8,169,76.2,165.8z"/>
		<path class="st114" d="M46,197c0.3,0,0.6,0.1,1,0.2c0.2,5.1,3.4,7.7,8.3,10c-0.6-3.4-1-5.9-1.5-8.8c2-0.1,3.6-0.2,5.3-0.4
			c2.8,5.4,5.5,10.8,8.3,16.2c-5.4-0.4-10.8-0.8-16.2-1.3c-1.6-3.7-3.4-7.4-4.8-11.2C45.7,200.3,46,198.6,46,197z"/>
		<path class="st115" d="M201.2,29c-2.1,1.7-4.2,3.4-6.3,5.1c-1.3-2.4-2.5-4.8-3.8-7.2C194.4,27.6,197.8,28.3,201.2,29z"/>
		<path class="st116" d="M103.1,229.1c4.9,0,6.5,2.6,4.2,7.3c-1.6,3.2-1,4.6,2.6,4.7c2.5,0.4,4.9,0.8,7.9,1.3
			c-0.9,0.6-1.5,1-2.1,1.4c-0.6,0.1-1.1,0.1-1.7,0.2c-1.4-0.2-2.9-0.4-4.3-0.7c-8.6-1.9-9.8-5-4.7-12.1
			C104.3,230.5,103.7,229.8,103.1,229.1z"/>
		<path class="st101" d="M114,244c0.6-0.1,1.1-0.1,1.7-0.2c2.8-0.3,5.5-0.8,8.3-0.9c0.6,0,1.3,1.2,2,1.8c-2.3,0.8-4.7,1.5-7,2.3
			c-2.7,0-5.4,0.1-8.1,0.1c0,0,0.1-0.3,0.1-0.3C112,245.9,113,244.9,114,244z"/>
		<path class="st31" d="M114,244c-1,1-2,1.9-2.9,2.9c-4.9-0.3-9.8-0.6-14.7-1c-0.7,0-1.4-0.3-1.9-0.1c-5.9,3.1-11.2,0-16.6-1.7
			c-2.3-2-4.6-4.1-6.9-6.1c7-0.4,14-0.8,21.1-1.1c2.1-1.1,4.1-2.4,6.3-3.3c2.1-0.9,4.3-1.5,6.5-2.3c-5,7-3.8,10.2,4.7,12.1
			C111.1,243.6,112.6,243.8,114,244z"/>
		<path class="st117" d="M110.9,247.1c2.7,0,5.4-0.1,8.1-0.1c-0.3,2-0.7,4-1,6c-1.1-2.2-2.4-2.6-5-2.2c-4.5,0.7-9.3,0.2-13.9,0.2
			C103,249.7,107,248.4,110.9,247.1z"/>
		<path class="st118" d="M57.9,235.1c-3.2-1.7-6.5-3.4-9.7-5.1c6.4,1.2,12.7,2.5,19.1,3.7c0.3,0.4,0.6,0.7,0.9,1.1
			C64.7,234.9,61.3,235,57.9,235.1z"/>
		<path class="st119" d="M92.1,236.9c-7,0.4-14,0.8-21.1,1.1c1-1,2-2,3-3c6,0,12,0.1,18,0.1C92.1,235.7,92.1,236.3,92.1,236.9z"/>
		<path class="st120" d="M92.1,236.9c0-0.6,0-1.2,0-1.8c3.7-2,7.4-4,11-5.9c0.6,0.7,1.2,1.4,1.8,2.1c-2.2,0.8-4.4,1.4-6.5,2.3
			C96.2,234.5,94.2,235.7,92.1,236.9z"/>
		<path class="st121" d="M67.2,214.2c-2.8-5.4-5.5-10.8-8.3-16.2c0.4-0.3,0.7-0.5,1.1-0.8c2,0,4-0.1,5.9-0.1
			c1.3,5.3,2.6,10.6,3.9,15.9c-0.4,0.4-0.7,0.8-1.1,1.3C68.3,214.2,67.8,214.2,67.2,214.2z"/>
		<path class="st122" d="M60.1,197.2c-0.4,0.3-0.7,0.5-1.1,0.8c-1.6,0.1-3.2,0.2-5.3,0.4c0.5,2.9,0.9,5.4,1.5,8.8
			c-4.9-2.3-8.1-4.9-8.3-10C51.3,197.2,55.7,197.2,60.1,197.2z"/>
		<path class="st123" d="M51.9,127.9c2.9-3.5,6-6.9,8.7-10.5c1.1-1.5,1.7-3.4,2.5-5.1c0,0-0.1-0.3-0.1-0.3c-1.1-1.4-2.1-2.7-3.2-4.1
			c0.5-0.4,1-0.8,1.5-1.2c7.9,2.9,7,12.8,13.2,17.7c-8.5,1.1-12.4,7.7-17.6,12.6c-0.4,1.9-0.8,3.7-1.5,6.5c0,0,0.7,1.1,1.6,1.4
			c4.1,1.2,4.9,4.3,5.6,7.9c0.3,1.7,1.6,3.3,2.4,5c-0.2,0-1.3,0.2-2.4,0.3c-4.5-0.7-9-1.3-13.4-2.3c-1.6-0.4-3-1.8-4.5-2.7
			C47.2,144.7,49.5,136.3,51.9,127.9z"/>
		<path class="st124" d="M49,113c-0.4,0-0.8-0.1-1.2-0.1c-3.9-5.2-3.2-10.5,0-15.5c3.1-4.8,6.8-9,13.2-9.3c1.6,0.9,3.2,1.8,4.7,2.7
			c-2.9,4-5.8,8-8.7,12c-0.9,0.6-1.9,1.2-2.8,1.8C53.5,108.1,53.7,112.1,49,113z"/>
		<path class="st77" d="M49,113c4.7-0.9,4.5-4.9,5.2-8.3c1.8,3.9,4.4,6.6,8.8,7.4c0,0,0.1,0.3,0.1,0.3c-6.6,7.3-13.3,14.5-19.9,21.8
			c1.3-4.2,1.9-8.9,4.2-12.4C49.4,118.6,49.7,116.1,49,113z"/>
		<path class="st91" d="M51.9,127.9c-2.4,8.4-4.7,16.8-7.1,25.3c-5.6-4.4-6.4-8.4-2.4-13.9C45.4,135.3,48.7,131.7,51.9,127.9z"/>
	</g>
</g>
</svg>
